/* XPM */
static char *_531318810372[] = {
/* columns rows colors chars-per-pixel */
"16 16 101 2 ",
"   c #F70012",
".  c #F80012",
"X  c #DD0034",
"o  c #F72135",
"O  c #A90040",
"+  c #AA0041",
"@  c #870275",
"#  c #880475",
"$  c #BD2074",
"%  c #BD2174",
"&  c #DB0349",
"*  c #DB054A",
"=  c #EB2541",
"-  c #EB2642",
";  c #CF2765",
":  c #CF2865",
">  c #BF417F",
",  c #82687A",
"<  c #82697A",
"1  c #B07174",
"2  c #B07275",
"3  c #F04E5D",
"4  c #F14E5D",
"5  c #ED585F",
"6  c #CF426F",
"7  c #CF436F",
"8  c #E74B66",
"9  c #ED5A61",
"0  c #E15C6D",
"q  c #E15E6F",
"w  c #D86770",
"e  c #D86871",
"r  c #F8647B",
"t  c #F8657C",
"y  c #7400B1",
"u  c #7500B1",
"i  c #7F11B5",
"p  c #7F13B6",
"a  c #7A55BF",
"s  c #7B57BF",
"d  c #8D0092",
"f  c #8D0093",
"g  c #93019A",
"h  c #93069A",
"j  c #A60081",
"k  c #A60082",
"l  c #855B8C",
"z  c #855C8C",
"x  c #B34595",
"c  c #B5669B",
"v  c #B5679C",
"b  c #9C47A7",
"n  c #A060A9",
"m  c #A062AA",
"M  c #D66D84",
"N  c #D76E85",
"B  c #C67195",
"V  c #C77296",
"C  c #F8989B",
"Z  c #FF9899",
"A  c #FF9A9A",
"S  c #F89B9C",
"D  c #9D8DDA",
"F  c #9F8EDA",
"G  c #A98CC8",
"H  c #AA8EC8",
"J  c #EFEDEA",
"K  c #EFEEEA",
"L  c #EFEFEC",
"P  c #FAEDEE",
"I  c #FDEFEF",
"U  c #F0F0ED",
"Y  c #EFEEF8",
"T  c #F9EFF0",
"R  c #FDEFF0",
"E  c #F0EFF8",
"W  c #F3F0F5",
"Q  c #F3F0F6",
"!  c #F6F0F4",
"~  c #F6F1F4",
"^  c #FAF0F2",
"/  c #FAF1F2",
"(  c #F8F2F2",
")  c #F8F3F2",
"_  c #F8F2F4",
"`  c #F8F3F5",
"'  c #FFF2F7",
"]  c #F7F7FE",
"[  c #F8F6F9",
"{  c #F9F7F9",
"}  c #FEF8F8",
"|  c #FEF9F9",
" . c #FFF9FB",
".. c #FFFAFB",
"X. c #FEFDFD",
"o. c #FEFDFE",
"O. c #FDFEFE",
"+. c #FEFEFE",
"@. c #FFFEFE",
"#. c white",
"$. c None",
/* pixels */
"$.$.$.$.$.$.$.$.$.$.$.$.$.$.$.$.",
"$.$.#.#.#.#.#.#.#.#.#.#.#.#.$.$.",
"$.#.#.#.] Y #.#.#.#.Y ] #.#.#.$.",
"$.#.#.#.F a J #.#.J s F #.#.#.$.",
"$.#.[ H y p l L U l p y G [ #.$.",
"$.#.W m g b f , , f b h n W #.$.",
"$.#.#.! v j x # @ x j c ! #.#.$.",
"$.#.#.#.` V $ > > % V ! #.#.#.$.",
"$.#.#.#.T N : 7 6 : M T #.#.#.$.",
"$.#.#.P 0 & 8 O O 8 * 0 P #.#.$.",
"$.#.^ 9 - 4 X 1 1 X 4 - 5 I #.$.",
"$.#.} S   o w ^ ) e o . C } #.$.",
"$.#.#.#.A t ^ #.#.^ t A #.#.#.$.",
"$.#.#.#.} ' #.#.#.#.' } #.#.#.$.",
"$.$.#.#.#.#.#.#.#.#.#.#.#.#.$.$.",
"$.$.$.$.$.$.$.$.$.$.$.$.$.$.$.$."
};
