/* XPM */
static char *d949df253eed4d28c2b976d8af736bd2[] = {
/* columns rows colors chars-per-pixel */
"16 16 77 1 ",
"  c #762877",
". c #6F4465",
"X c #FD0000",
"o c #FE0000",
"O c #F3000E",
"+ c #F4000D",
"@ c #CC2C3F",
"# c #B02750",
"$ c #8C2279",
"% c #BE3279",
"& c #BF3D7D",
"* c #CC2C40",
"= c #DF2C49",
"- c #DA2956",
"; c #DC2F58",
": c #E8354E",
"> c #E9354E",
", c #E9374E",
"< c #E9374F",
"1 c #F53747",
"2 c #F33C5C",
"3 c #CE356A",
"4 c #D03F6E",
"5 c #9C454B",
"6 c #EC485B",
"7 c #ED485B",
"8 c #F54951",
"9 c #D14C73",
"0 c #E54665",
"q c #7800AA",
"w c #7532B0",
"e c #5B00C5",
"r c #952094",
"t c #992B9B",
"y c #992C9B",
"u c #9A339B",
"i c #AA2186",
"p c #AC2D87",
"a c #AC2D88",
"s c #882AB4",
"d c #B44192",
"f c #9E41A2",
"g c #8940B2",
"h c #C04B82",
"j c #D5C7DE",
"k c #D5C7DF",
"l c #F9C7C9",
"z c #FDCBCC",
"x c #FFC8CF",
"c c #E0DDDA",
"v c #E1DDDA",
"b c #F9D6D7",
"n c #F9D6D8",
"m c #F3DDDE",
"M c #F6DDDF",
"N c #E3E1DF",
"B c #CDC7EE",
"V c #D2CAE7",
"C c #DBD6E9",
"Z c #E2D6E5",
"A c #EADDE5",
"S c #EADDE6",
"D c #FED7E0",
"F c #EEE1E0",
"G c #EEE1E1",
"H c #EFE1E6",
"J c #F4E1E4",
"K c #FEFDFD",
"L c #FFFDFD",
"P c #FDFDFE",
"I c #FEFDFE",
"U c #FEFEFE",
"Y c #FFFEFE",
"T c #FEFEFF",
"R c #FFFEFF",
"E c gray100",
"W c None",
/* pixels */
"WWEEEEEEEEEPEEWW",
"WEEEEEEEEPEEEEEW",
"EEEEBCEEPECBEEEE",
"EEEVewcEEcweVEEE",
"EEjqgs NN sgqjEE",
"EEZutfr..rfyuZEE",
"EPEApid$$diaAEEE",
"EEPEHh%&&%hAEPEE",
"EEEEJ934439JEEEE",
"EEEM;-0##0-;MEEE",
"LEb>>7=55=7>>bEE",
"LEl+81@AF@18+lEE",
"EEEzo2MEEM2ozEEE",
"EELExnEEEEnxEEEE",
"WEEEEEEEEEEEEEEW",
"WWEEPEEEEEEEEEWW"
};
