/* XPM */
static char *_8494_15e94c6b0965d94477bc0e23dbc01ea9e5d02a352518baeb7a03cbf39d938616[] = {
/* columns rows colors chars-per-pixel */
"16 16 89 1 ",
"  c black",
". c #151515",
"X c #282828",
"o c #2A2A2A",
"O c #323232",
"+ c #343434",
"@ c gray21",
"# c #373737",
"$ c gray23",
"% c #3F3F3F",
"& c #414141",
"* c gray27",
"= c #494949",
"- c gray30",
"; c #585858",
": c #626262",
"> c #6F6F6F",
", c #717171",
"< c gray45",
"1 c gray46",
"2 c #767676",
"3 c gray49",
"4 c #808080",
"5 c gray51",
"6 c #868686",
"7 c #898989",
"8 c gray54",
"9 c gray56",
"0 c #909090",
"q c #939393",
"w c gray59",
"e c #979797",
"r c #9A9A9A",
"t c #9B9B9B",
"y c #9F9F9F",
"u c #A0A0A0",
"i c gray63",
"p c gray64",
"a c #A4A4A4",
"s c #A7A7A7",
"d c #AAAAAA",
"f c #AEAEAE",
"g c #B1B1B1",
"h c #B2B2B2",
"j c gray70",
"k c #B6B6B6",
"l c gray73",
"z c gray75",
"x c #C0C0C0",
"c c #C1C1C1",
"v c #C5C5C5",
"b c #C6C6C6",
"n c #C8C8C8",
"m c #CDCDCD",
"M c #CECECE",
"N c gray81",
"B c LightGray",
"V c gray83",
"C c gray84",
"Z c #D7D7D7",
"A c #D8D8D8",
"S c gray85",
"D c #DADADA",
"F c gray86",
"G c gray88",
"H c #E1E1E1",
"J c #E2E2E2",
"K c gray89",
"L c #E4E4E4",
"P c gray90",
"I c #E6E6E6",
"U c #EAEAEA",
"Y c gray92",
"T c #ECECEC",
"R c gray94",
"E c gray95",
"W c #F3F3F3",
"Q c #F4F4F4",
"! c #F6F6F6",
"~ c gray97",
"^ c #F8F8F8",
"/ c #F9F9F9",
"( c gray98",
") c #FBFBFB",
"_ c gray99",
"` c #FDFDFD",
"' c #FEFEFE",
"] c white",
"[ c None",
/* pixels */
"[[[[[[liaz[[[[[[",
"[[[[JnvGZy>b[[[[",
"[[]]~`]]]]z K][[",
"[[]R]'!R)^]e ][[",
"[W-2!]!Q)]]h c][",
"[W =/)~']Fmn w][",
"]'fp5%l^S. 4#8]_",
"]]i1  ;Id +  q]`",
"]]07&oxAw$ X,a]`",
"_]avEYL:OlCV,3]]",
"`]MrGPI@<jks&*]]",
"[]]8 6]I)D.  f][",
"[`]]N5U/(V rT]][",
"[[']]NuGFp B]([[",
"[[[`]]9    H][[[",
"[[[[[]]Mftg[[[[["
};
