/* XPM */
static char *result[] = {
/* columns rows colors chars-per-pixel */
"16 16 74 1 ",
"  c #D50000",
". c #D70000",
"X c #DD0000",
"o c #DE0000",
"O c #DF0000",
"+ c #E40000",
"@ c #E70000",
"# c #E80000",
"$ c red",
"% c #EF1F1F",
"& c #F01F1F",
"* c #F11F1F",
"= c #E52A2A",
"- c #ED2B2B",
"; c #EE2B2B",
": c #F12B2B",
"> c #F22B2B",
", c #FF2929",
"< c #E63C3C",
"1 c #E83838",
"2 c #FD3333",
"3 c #FF3434",
"4 c #FF3737",
"5 c #FE3B3B",
"6 c #E74646",
"7 c #E64A4A",
"8 c #FE4444",
"9 c #FF4B4B",
"0 c #E85252",
"q c #E95454",
"w c #EB5B5B",
"e c #FF5252",
"r c #FE5555",
"t c #FF5757",
"y c #F85959",
"u c #FF5A5A",
"i c #FE5B5B",
"p c #F85F5F",
"a c #FC6363",
"s c #FC6969",
"d c #FF6868",
"f c #FF6C6C",
"g c #F98686",
"h c #FE8686",
"j c #F98B8B",
"k c #FE8D8D",
"l c #FB9797",
"z c #FE9595",
"x c #FB9B9B",
"c c #FE9A9A",
"v c #FEEDED",
"b c #FFEDED",
"n c #FFEEEE",
"m c #FFEFEF",
"M c #FDF0F0",
"N c #FFF0F0",
"B c #FFF1F1",
"V c #FEF2F2",
"C c #FFF3F3",
"Z c #FEF4F4",
"A c #FFF5F5",
"S c #FFF7F7",
"D c #FDF9F9",
"F c #FFF9F9",
"G c #FDFAFA",
"H c snow",
"J c #FDFDFD",
"K c #FEFCFC",
"L c #FFFCFC",
"P c #FEFDFD",
"I c #FFFDFD",
"U c #FFFEFE",
"Y c white",
"T c None",
/* pixels */
"TTTTTIYYYYYTTTTT",
"TTTIYYYYYYYYYTTT",
"TTUYPVYUUYZGYUTT",
"TYYYx1mYYA0jYYIT",
"TYIc$@6BSw+$kHYT",
"IYA9$3.ps 2$,mYI",
"YYYCr$:XO-$5bYYY",
"YYUYAd$*%$tmYIYY",
"YYUYSf$*&$uBYIYY",
"YYYAi$>Xo;$8mYYY",
"YYAe$3.ya 2$4NYY",
"TYLz$#<nAq+$hFYT",
"TYYYl=vYYC7gYYIT",
"TTUYKMYIIYVDYUTT",
"TTTIYYYYYYYYITTT",
"TTTTTIYYYYJTTTTT"
};
