/* XPM */
static char *result[] = {
/* columns rows colors chars-per-pixel */
"128 128 75 1 ",
"  c #940000",
". c #9C0000",
"X c #A40000",
"o c #AC0000",
"O c #B30000",
"+ c #BC0000",
"@ c #C40000",
"# c #CC0000",
"$ c #D40000",
"% c #DC0000",
"& c #CF1616",
"* c #CE1D1D",
"= c #D51616",
"- c #D01D1D",
"; c #DA1D1D",
": c #E40000",
"> c #EC0000",
", c #EE0B0B",
"< c #F40000",
"1 c #FE0000",
"2 c #F40B0B",
"3 c #FE0B0B",
"4 c #E21616",
"5 c #EF1010",
"6 c #EE1D1D",
"7 c #F61616",
"8 c #FF1515",
"9 c #F31D1D",
"0 c #FF1D1D",
"q c #D72525",
"w c #DC2525",
"e c #E52626",
"r c #EA2323",
"t c #E62D2D",
"y c #ED2929",
"u c #F42323",
"i c #FF2424",
"p c #F42929",
"a c #FE2929",
"s c #E93838",
"d c #FF3434",
"f c #F33B3B",
"g c #FE3B3B",
"h c #ED4141",
"j c #FF4343",
"k c #EE5A5A",
"l c #FF5353",
"z c #FF5F5F",
"x c #F66565",
"c c #FF6161",
"v c #FF7272",
"b c #F57F7F",
"n c #FE7F7F",
"m c #F38383",
"M c #FF8282",
"N c #F08C8C",
"B c #FF8D8D",
"V c #F49292",
"C c #FE9292",
"Z c #F69E9E",
"A c #FF9A9A",
"S c #F7A9A9",
"D c #FFAEAE",
"F c #FFB0B0",
"G c #F6B9B9",
"H c #FEBCBC",
"J c #FFC6C6",
"K c #FBCBCB",
"L c #FFD2D2",
"P c #FDDEDE",
"I c #FFE0E0",
"U c #FEEBEB",
"Y c #FFF5F5",
"T c #FFFFFF",
"R c None",
/* pixels */
"RRRRRRRRRRRRRRRRRRRRRRRRRRRRRRRRRRRRRRRRRRRRRRRRRRRRRRRRTTTTTTTTTTTTTTTTRRRRRRRRRRRRRRRRRRRRRRRRRRRRRRRRRRRRRRRRRRRRRRRRRRRRRRRR",
"RRRRRRRRRRRRRRRRRRRRRRRRRRRRRRRRRRRRRRRRRRRRRRRRRRTTTTTTTTTTTTTTTTTTTTTTTTTTTTRRRRRRRRRRRRRRRRRRRRRRRRRRRRRRRRRRRRRRRRRRRRRRRRRR",
"RRRRRRRRRRRRRRRRRRRRRRRRRRRRRRRRRRRRRRRRRRRRRRTTTTTTTTTTTTTTTTTTTTTTTTTTTTTTTTTTTTRRRRRRRRRRRRRRRRRRRRRRRRRRRRRRRRRRRRRRRRRRRRRR",
"RRRRRRRRRRRRRRRRRRRRRRRRRRRRRRRRRRRRRRRRRRRTTTTTTTTTTTTTTTTTTTTTTTTTTTTTTTTTTTTTTTTTTRRRRRRRRRRRRRRRRRRRRRRRRRRRRRRRRRRRRRRRRRRR",
"RRRRRRRRRRRRRRRRRRRRRRRRRRRRRRRRRRRRRRRRRTTTTTTTTTTTTTTTTTTTTTTTTTTTTTTTTTTTTTTTTTTTTTTTRRRRRRRRRRRRRRRRRRRRRRRRRRRRRRRRRRRRRRRR",
"RRRRRRRRRRRRRRRRRRRRRRRRRRRRRRRRRRRRRRTTTTTTTTTTTTTTTTTTTTTTTTTTTTTTTTTTTTTTTTTTTTTTTTTTTTRRRRRRRRRRRRRRRRRRRRRRRRRRRRRRRRRRRRRR",
"RRRRRRRRRRRRRRRRRRRRRRRRRRRRRRRRRRRRTTTTTTTTTTTTTTTTTTTTTTTTTTTTTTTTTTTTTTTTTTTTTTTTTTTTTTTTRRRRRRRRRRRRRRRRRRRRRRRRRRRRRRRRRRRR",
"RRRRRRRRRRRRRRRRRRRRRRRRRRRRRRRRRRTTTTTTTTTTTTTTTTTTTTTTTTTTTTTTTTTTTTTTTTTTTTTTTTTTTTTTTTTTTTRRRRRRRRRRRRRRRRRRRRRRRRRRRRRRRRRR",
"RRRRRRRRRRRRRRRRRRRRRRRRRRRRRRRRTTTTTTTTTTTTTTTTTTTTTTTTTTTTTTTTTTTTTTTTTTTTTTTTTTTTTTTTTTTTTTTTRRRRRRRRRRRRRRRRRRRRRRRRRRRRRRRR",
"RRRRRRRRRRRRRRRRRRRRRRRRRRRRRRRTTTTTTTTTTTTTTTTTTTTTTTTTTTTTTTTTTTTTTTTTTTTTTTTTTTTTTTTTTTTTTTTTTTRRRRRRRRRRRRRRRRRRRRRRRRRRRRRR",
"RRRRRRRRRRRRRRRRRRRRRRRRRRRRRTTTTTTTTTTTTTTTTTTTTTTTTTTTTTTTTTTTTTTTTTTTTTTTTTTTTTTTTTTTTTTTTTTTTTTRRRRRRRRRRRRRRRRRRRRRRRRRRRRR",
"RRRRRRRRRRRRRRRRRRRRRRRRRRRRTTTTTTTTTTTTTTTTTTTTTTTTTTTTTTTTTTTTTTTTTTTTTTTTTTTTTTTTTTTTTTTTTTTTTTTTTRRRRRRRRRRRRRRRRRRRRRRRRRRR",
"RRRRRRRRRRRRRRRRRRRRRRRRRRTTTTTTTTTTTTTTTTTTTTTTTTTTTTTTTTTTTTTTTTTTTTTTTTTTTTTTTTTTTTTTTTTTTTTTTTTTTTRRRRRRRRRRRRRRRRRRRRRRRRRR",
"RRRRRRRRRRRRRRRRRRRRRRRRRTTTTTTTTTTTTTTTTTTTTTTTTTTTTTTTTTTTTTTTTTTTTTTTTTTTTTTTTTTTTTTTTTTTTTTTTTTTTTTRRRRRRRRRRRRRRRRRRRRRRRRR",
"RRRRRRRRRRRRRRRRRRRRRRRRTTTTTTTTTTTTTTTTTTTTTTTTTTTTTTTTTTTTTTTTTTTTTTTTTTTTTTTTTTTTTTTTTTTTTTTTTTTTTTTTTRRRRRRRRRRRRRRRRRRRRRRR",
"RRRRRRRRRRRRRRRRRRRRRRTTTTTTTTTTTTTTTTTTTTTTTTTTTTTTTTTTTTTTTTTTTTTTTTTTTTTTTTTTTTTTTTTTTTTTTTTTTTTTTTTTTTRRRRRRRRRRRRRRRRRRRRRR",
"RRRRRRRRRRRRRRRRRRRRRTTTTTTTTTTTTTTTTTTTTTTTTTTTTTTTTTTTTTTTTTTTTTTTTTTTTTTTTTTTTTTTTTTTTTTTTTTTTTTTTTTTTTTRRRRRRRRRRRRRRRRRRRRR",
"RRRRRRRRRRRRRRRRRRRRTTTTTTTTTTTTTTTTTTTTTTTTTTTTTTTTTTTTTTTTTTTTTTTTTTTTTTTTTTTTTTTTTTTTTTTTTTTTTTTTTTTTTTTTRRRRRRRRRRRRRRRRRRRR",
"RRRRRRRRRRRRRRRRRRRTTTTTTTTTTTTTTTTTTTTTTTTTTTTTTTTTTTTTTTTTTTTTTTTTTTTTTTTTTTTTTTTTTTTTTTTTTTTTTTTTTTTTTTTTTRRRRRRRRRRRRRRRRRRR",
"RRRRRRRRRRRRRRRRRRTTTTTTTTTTTTTTTTTTTTTTTTTTTTTTTTTTTTTTTTTTTTTTTTTTTTTTTTTTTTTTTTTTTTTTTTTTTTTTTTTTTTTTTTTTTTRRRRRRRRRRRRRRRRRR",
"RRRRRRRRRRRRRRRRRTTTTTTTTTTTTTTTTTTTTTTTTTTTTTTTTTTTTTTTTTTTTTTTTTTTTTTTTTTTTTTTTTTTTTTTTTTTTTTTTTTTTTTTTTTTTTTRRRRRRRRRRRRRRRRR",
"RRRRRRRRRRRRRRRRTTTTTTTTTTTTTTTTTTTTTTTTYZYTTTTTTTTTTTTTTTTTTTTTTTTTTTTTTTTTTTTTTTTTTTKGTTTTTTTTTTTTTTTTTTTTTTTTRRRRRRRRRRRRRRRR",
"RRRRRRRRRRRRRRRTTTTTTTTTTTTTTTTTTTTTTTTTm>xYTTTTTTTTTTTTTTTTTTTTTTTTTTTTTTTTTTTTTTTTTL>>GTTTTTTTTTTTTTTTTTTTTTTTTRRRRRRRRRRRRRRR",
"RRRRRRRRRRRRRRRTTTTTTTTTTTTTTTTTTTTTTTTb>s:zYTTTTTTTTTTTTTTTTTTTTTTTTTTTTTTTTTTTTTTTL<:r>GTTTTTTTTTTTTTTTTTTTTTTTTRRRRRRRRRRRRRR",
"RRRRRRRRRRRRRRTTTTTTTTTTTTTTTTTTTTTTTYn>p:w>zYTTTTTTTTTTTTTTTTTTTTTTTTTTTTTTTTTTTTTK1%4:u<GTTTTTTTTTTTTTTTTTTTTTTTTRRRRRRRRRRRRR",
"RRRRRRRRRRRRRTTTTTTTTTTTTTTTTTTTTTTTTn<y>:%q<zYTTTTTTTTTTTTTTTTTTTTTTTTTTTTTTTTTTTL1:=::,9<HTTTTTTTTTTTTTTTTTTTTTTTRRRRRRRRRRRRR",
"RRRRRRRRRRRRTTTTTTTTTTTTTTTTTTTTTTTTn1p<>:%%q1zYTTTTTTTTTTTTTTTTTTTTTTTTTTTTTTTTTL1<=%::<291HTTTTTTTTTTTTTTTTTTTTTTTRRRRRRRRRRRR",
"RRRRRRRRRRRRTTTTTTTTTTTTTTTTTTTTTTTn1p1<<:%%#e1zYTTTTTTTTTTTTTTTTTTTTTTTTTTTTTTTL11=#%:><<201HTTTTTTTTTTTTTTTTTTTTTTTRRRRRRRRRRR",
"RRRRRRRRRRRTTTTTTTTTTTTTTTTTTTTTTTn1a1<<<>:%$@p1zYTTTTTTTTTTTTTTTTTTTTTTTTTTTTTL114@$%:><<<201HTTTTTTTTTTTTTTTTTTTTTTRRRRRRRRRRR",
"RRRRRRRRRRTTTTTTTTTTTTTTTTTTTTTTTM1a111<<::%$@$a1zYTTTTTTTTTTTTTTTTTTTTTTTTTTTL117@#$%:<<<11301HTTTTTTTTTTTTTTTTTTTTTTRRRRRRRRRR",
"RRRRRRRRRRTTTTTTTTTTTTTTTTTTTTTTM1a111<1<<::$#+:a1zYTTTTTTTTTTTTTTTTTTTTTTTTTL118$+#%:><<<111301HTTTTTTTTTTTTTTTTTTTTTTRRRRRRRRR",
"RRRRRRRRRTTTTTTTTTTTTTTTTTTTTTTn1a111<11<<::%#@+1a1zYTTTTTTTTTTTTTTTTTTTTTTTK118:O#$%:><111111301HTTTTTTTTTTTTTTTTTTTTTRRRRRRRRR",
"RRRRRRRRTTTTTTTTTTTTTTTTTTTTTTn1a1111111<<>:%$#O$1a1zYTTTTTTTTTTTTTTTTTTTTTL1181++#$:>><1111111301HTTTTTTTTTTTTTTTTTTTTTRRRRRRRR",
"RRRRRRRRTTTTTTTTTTTTTTTTTTTTTn1a111111111<<>:%#@O>1a1zYTTTTTTTTTTTTTTTTTTTL1181$O@$%:><1<1111111301HTTTTTTTTTTTTTTTTTTTTRRRRRRRR",
"RRRRRRRTTTTTTTTTTTTTTTTTTTTYM1a1111111111<<<>%$@O+11a1zYTTTTTTTTTTTTTTTTTL1181>o+#%:><<1111111111301HTTTTTTTTTTTTTTTTTTTTRRRRRRR",
"RRRRRRRTTTTTTTTTTTTTTTTTTTTn1a111111111111<<>:%#+o%11a1zYTTTTTTTTTTTTTTTL11811+O@$%:<<<11111111111301HTTTTTTTTTTTTTTTTTTTRRRRRRR",
"RRRRRRTTTTTTTTTTTTTTTTTTTTn1a11111111111111<>>:$@+o<11a1zYTTTTTTTTTTTTTL11811%X+@%:><11<11111111111301HTTTTTTTTTTTTTTTTTTTRRRRRR",
"RRRRRRTTTTTTTTTTTTTTTTTTTn1a111111111111111<<>:%#@o+111a1zYTTTTTTTTTTTL11811<XO@$%:<<<11111111111111301HTTTTTTTTTTTTTTTTTTRRRRRR",
"RRRRRTTTTTTTTTTTTTTTTTTTn1a1111111111111111<<<>%$#+.:111a1zYTTTTTTTTTL118111@X@#%:><<1111111111111111301HTTTTTTTTTTTTTTTTTTRRRRR",
"RRRRRTTTTTTTTTTTTTTTTTTn1a1111111111111111111<<:%#@oo1111a1zYTTTTTTTL118111:.+@$%>>1111111111111111111301FTTTTTTTTTTTTTTTTTRRRRR",
"RRRRRTTTTTTTTTTTTTTTTYM1a11111111111111111111<<>:$#+.#1111a1zYTTTTTL1181111oo+#%:<<11111111111111111111301HTTTTTTTTTTTTTTTTTRRRR",
"RRRRTTTTTTTTTTTTTTTTTJ1d11111111111111111111<1<<>%$@O.>1111a1zYTYTL1181111#.+#$:><<111111111111111111111i11YTTTTTTTTTTTTTTTTRRRR",
"RRRRTTTTTTTTTTTTTTTTTTD1a111111111111111111111<<>:%#+XO11111a1cYTL1181111>.O@$%>><1<1111111111111111111011ITTTTTTTTTTTTTTTTTRRRR",
"RRRTTTTTTTTTTTTTTTTTTTTD1a1111111111111111111<11<>:$@+ $11111a1vJ11811111OX+#$:><111111111111111111111011PTTTTTTTTTTTTTTTTTTTRRR",
"RRRTTTTTTTTTTTTTTTTTTTTTD1a11111111111111111111<<<:%#@O.<111110113811111$ +@$:>><11111111111111111111011ITTTTTTTTTTTTTTTTTTTTRRR",
"RRRTTTTTTTTTTTTTTTTTTTTTTD1i11111111111111111111<<>:$@+.+1111118i111111<.o+#%>><<1111111111111111111011PTTTTTTTTTTTTTTTTTTTTTRRR",
"RRTTTTTTTTTTTTTTTTTTTTTTTTD1a111111111111111111<1<<>:$@o :1111111111111+ +@%:><11111111111111111111011ITTTTTTTTTTTTTTTTTTTTTTTRR",
"RRTTTTTTTTTTTTTTTTTTTTTTTTTD1a1111111111111111111<<>:%#+XX111111111111: O@$%:<<<111111111111111111011ITTTTTTTTTTTTTTTTTTTTTTTTRR",
"RRTTTTTTTTTTTTTTTTTTTTTTTTTTD1i1111111111111111111<<>:$@O #11111111111XX+#%:><<111111111111111111011PTTTTTTTTTTTTTTTTTTTTTTTTTRR",
"RRTTTTTTTTTTTTTTTTTTTTTTTTTTTD1i1111111111111111111<>:%$+o >111111111# O@$%><1111111111111111111011PTTTTTTTTTTTTTTTTTTTTTTTTTTTR",
"RTTTTTTTTTTTTTTTTTTTTTTTTTTTTTD1a11111111111111111<<<>:%#+.O11111111> o+$%><<<11111111111111111011PTTTTTTTTTTTTTTTTTTTTTTTTTTTTR",
"RTTTTTTTTTTTTTTTTTTTTTTTTTTTTTTD1a111111111111111111<<>%$@O %1111111OX+#$:><11<111111111111111011ITTTTTTTTTTTTTTTTTTTTTTTTTTTTTR",
"RTTTTTTTTTTTTTTTTTTTTTTTTTTTTTTTD1a1111111111111111<1<>>%#+oX<11111% O@$%><<1<111111111111111011ITTTTTTTTTTTTTTTTTTTTTTTTTTTTTTR",
"RTTTTTTTTTTTTTTTTTTTTTTTTTTTTTTTTD1a11111111111111111<<>:$#+X@11111Xo@#%:><11111111111111111011PTTTTTTTTTTTTTTTTTTTTTTTTTTTTTTTR",
"RTTTTTTTTTTTTTTTTTTTTTTTTTTTTTTTTTD1a11111111111111111<<>:$@+X:111#X@#%:><1<111111111111111011ITTTTTTTTTTTTTTTTTTTTTTTTTTTTTTTTT",
"RTTTTTTTTTTTTTTTTTTTTTTTTTTTTTTTTTTD1a1111111111111111<<>>%$@++11>O@#$%>>1<111111111111111011ITTTTTTTTTTTTTTTTTTTTTTTTTTTTTTTTTT",
"TTTTTTTTTTTTTTTTTTTTTTTTTTTTTTTTTTTTD1i111111111111111<<<>:%$#+:1#@#$%>><1111111111111111011PTTTTTTTTTTTTTTTTTTTTTTTTTTTTTTTTTTT",
"TTTTTTTTTTTTTTTTTTTTTTTTTTTTTTTTTTTTTD1i1111111111111111<<>:%$$$%#$%:>><<111111111111111011ITTTTTTTTTTTTTTTTTTTTTTTTTTTTTTTTTTTT",
"TTTTTTTTTTTTTTTTTTTTTTTTTTTTTTTTTTTTTTD1a1111111111111111<<>>:%%%%%:>><<1<1111111111111011PTTTTTTTTTTTTTTTTTTTTTTTTTTTTTTTTTTTTT",
"TTTTTTTTTTTTTTTTTTTTTTTTTTTTTTTTTTTTTTTD1a1111111111111111<<>>>:>:>><<<111111111111111011ITYTTTTTTTTTTTTTTTTTTTTTTTTTTTTTTTTTTTT",
"TTTTTTTTTTTTTTTTTTTTTTTTTTTTTTTTTTTTTTTTD1a1111111111111<1<<<<<>><<<<<1<1111111111111011ITTTTTTTTTTTTTTTTTTTTTTTTTTTTTTTTTTTTTTT",
"TTTTTTTTTTTTTTTTTTTTTTTTTTTTTTTTTTTTTTTTTD1a11111111111111111<<<<<<<1<11111111111111011PTTTTTTTTTTTTTTTTTTTTTTTTTTTTTTTTTTTTTTTT",
"TTTTTTTTTTTTTTTTTTTTTTTTTTTTTTTTTTTTTTTTTTD1811111111111111<11<<<<11111111111111111011PTTTTTTTTTTTTTTTTTTTTTTTTTTTTTTTTTTTTTTTTT",
"TTTTTTTTTTTTTTTTTTTTTTTTTTTTTTTTTTTTTTTTTTTF18111111111111111<11111<1111111111111131jITTTTTTTTTTTTTTTTTTTTTTTTTTTTTTTTTTTTTTTTTT",
"TTTTTTTTTTTTTTTTTTTTTTTTTTTTTTTTTTTTTTTTTTTL181111111111111111111<111111111111111181cTTTTTTTTTTTTTTTTTTTTTTTTTTTTTTTTTTTTTTTTTTT",
"TTTTTTTTTTTTTTTTTTTTTTTTTTTTTTTTTTTTTTTTTTL11311111111111111<1<1<1<111111111111111101zYTTTTTTTTTTTTTTTTTTTTTTTTTTTTTTTTTTTTTTTTT",
"TTTTTTTTTTTTTTTTTTTTTTTTTTTTTTTTTTTTTTTTTL11811111111111111<1<<<<1<1<111111111111111i1zYTTTTTTTTTTTTTTTTTTTTTTTTTTTTTTTTTTTTTTTT",
"TTTTTTTTTTTTTTTTTTTTTTTTTTTTTTTTTTTTTTTTL1181111111111111<1<<<><>><><<111111111111111a1zYTTTTTTTTTTTTTTTTTTTTTTTTTTTTTTTTTTTTTTT",
"TTTTTTTTTTTTTTTTTTTTTTTTTTTTTTTTTTTTTTTL11811111111111111<<<>>>>>:>><<<1<1111111111111a1zYTTTTTTTTTTTTTTTTTTTTTTTTTTTTTTTTTTTTTT",
"TTTTTTTTTTTTTTTTTTTTTTTTTTTTTTTTTTTTTTL118111111111111111<<>>:%%%%::>><<111111111111111a1zYTTTTTTTTTTTTTTTTTTTTTTTTTTTTTTTTTTTTT",
"TTTTTTTTTTTTTTTTTTTTTTTTTTTTTTTTTTTTTL1181111111111111<1<<>>:%$$%#$%:>><<111111111111111a1zYTTTTTTTTTTTTTTTTTTTTTTTTTTTTTTTTTTTT",
"TTTTTTTTTTTTTTTTTTTTTTTTTTTTTTTTTTTTL1181111111111111111<<:%$#+%1@##$:><<<111111111111111a1zYTTTTTTTTTTTTTTTTTTTTTTTTTTTTTTTTTTT",
"RTTTTTTTTTTTTTTTTTTTTTTTTTTTTTTTTTTL11811111111111111<1<<::$#++<1:O@#%:><1<111111111111111a1zYTTTTTTTTTTTTTTTTTTTTTTTTTTTTTTTTTT",
"RTTTTTTTTTTTTTTTTTTTTTTTTTTTTTTTTTL1181111111111111111<>::$#+X%111@o@#%:><1<111111111111111a1zYTTTTTTTTTTTTTTTTTTTTTTTTTTTTTTTTT",
"RTTTTTTTTTTTTTTTTTTTTTTTTTTTTTTTTL11811111111111111111<<:%#+o+1111>XO@$%:><11111111111111111a1zYTTTTTTTTTTTTTTTTTTTTTTTTTTTTTTTR",
"RTTTTTTTTTTTTTTTTTTTTTTTTTTTTTTTK1181111111111111111<<<:%$@O >11111#.O@$:><111111111111111111a1zYTTTTTTTTTTTTTTTTTTTTTTTTTTTTTTR",
"RTTTTTTTTTTTTTTTTTTTTTTTTTTTTTTL11811111111111111111<<>:$@+ #1111111XX+#%:><<11111111111111111a1zYTTTTTTTTTTTTTTTTTTTTTTTTTTTTTR",
"RTTTTTTTTTTTTTTTTTTTTTTTTTTTTTL1181111111111111111<1<>:%#+XX11111111: O@$%><<1<1111111111111111a1zYTTTTTTTTTTTTTTTTTTTTTTTTTTTTR",
"RRTTTTTTTTTTTTTTTTTTTTTTTTTTTL118111111111111111111<<>%$@O %111111111+ +#$:><<111111111111111111a1zYTTTTTTTTTTTTTTTTTTTTTTTTTTTR",
"RRTTTTTTTTTTTTTTTTTTTTTTTTTTL118111111111111111111<<>:$#+.O11111111111 o+#%:<<<111111111111111111a1zYTTTTTTTTTTTTTTTTTTTTTTTTTRR",
"RRTTTTTTTTTTTTTTTTTTTTTTTTTK118111111111111111111<<>:%#+o <11111111111$ O@$:><<1111111111111111111a1zYTTTTTTTTTTTTTTTTTTTTTTTTRR",
"RRTTTTTTTTTTTTTTTTTTTTTTTTL1181111111111111111111<<>:$@O $1111111111111oX+#$:><1<111111111111111111a1zYTTTTTTTTTTTTTTTTTTTTTTTRR",
"RRRTTTTTTTTTTTTTTTTTTTTTTL11811111111111111111111<>:%#+Xo11111130111111> O@#%:<<11111111111111111111a1zYTTTTTTTTTTTTTTTTTTTTTTRR",
"RRRTTTTTTTTTTTTTTTTTTTTTL1181111111111111111111<<<>%#@O >111110110111111@ +#$:><<11111111111111111111a1zYTTTTTTTTTTTTTTTTTTTTRRR",
"RRRTTTTTTTTTTTTTTTTTTTTL1181111111111111111111<<<>:$#+ @1111101jA10111111XX+#%:<<<<1111111111111111111a1zYTTTTTTTTTTTTTTTTTTTRRR",
"RRRRTTTTTTTTTTTTTTTTTTL118111111111111111111111<<:%#+oX11111011ITD1a11111% O@$%:<<111111111111111111111a1zYTTTTTTTTTTTTTTTTTTRRR",
"RRRRTTTTTTTTTTTTTTTTTK108111111111111111111111<<>%$@O %1111011ITTTD1a11111+X+#%:><<111111111111111111111a1lYTTTTTTTTTTTTTTTTRRRR",
"RRRRTTTTTTTTTTTTTTTTTUg1011111111111111111111<<>:%#+X+1111011ITTTTTD1a1111<.O+$%:<<111111111111111111111i1BTTTTTTTTTTTTTTTTTRRRR",
"RRRRRTTTTTTTTTTTTTTTTTUg1i11111111111111111<1<>>:$@OX<111011PTTTTTTTD1i1111$ +@$:><<1111111111111111111a1CTTTTTTTTTTTTTTTTTRRRRR",
"RRRRRTTTTTTTTTTTTTTTTTTUg1i11111111111111111<<>:$@+ $111011PTTTTTTTTTD1i1111Oo@#%:><<11111111111111111a1CTTTTTTTTTTTTTTTTTTRRRRR",
"RRRRRRTTTTTTTTTTTTTTTTTTUg1i1111111111111111<>:%#@oO111011PTTTTTTTTTTTD1a111>XO@$%><<1<11111111111111a1CTTTTTTTTTTTTTTTTTTTRRRRR",
"RRRRRRTTTTTTTTTTTTTTTTTYTUg1i1111111111111<<>>:$#OX>11011ITTTTTTTTTTTTTD1a111#X@#%:><<11111111111111a1CTTTTTTTTTTTTTTTTTTTRRRRRR",
"RRRRRRRTTTTTTTTTTTTTTTTTTTUg1i111111111111<<>:%#@o#11011ITTTTTTTTTTTTTTTD1i111oO@$::<<1111111111111a1CTTTTTTTTTTTTTTTTTTTTRRRRRR",
"RRRRRRRTTTTTTTTTTTTTTTTTTTTUg1i11111111111<<>%$#OO<1011PTTTTTTTTTTTTTTTTTF1i11:X+#$:><<11111111111a1CTTTTTTTTTTTTTTTTTTTTRRRRRRR",
"RRRRRRRRTTTTTTTTTTTTTTTTTTTTUg1i11111111<<<>:%#@o:1011PTTTTTTTTTTTTTTTTTTTD1a11@O#$%:><<111111111a1CTTTTTTTTTTTTTTTTTTTTTRRRRRRR",
"RRRRRRRRTTTTTTTTTTTTTTTTTTTTTUg1i11111111<<:%$#O@1011ITTTTTTTTTTTTTTTTTTTTTF1a1<O+#$:><1<1111111a1CTTTTTTTTTTTTTTTTTTTTTRRRRRRRR",
"RRRRRRRRRTTTTTTTTTTTTTTTTTTTTTUg1i111111<<>:$#@O<011ITTTTTTTTTTTTTTTTTTTTTTTF1a1%O#$::<<<111111a1CTTTTTTTTTTTTTTTTTTTTTRRRRRRRRR",
"RRRRRRRRRTTTTTTTTTTTTTTTTTTTTTTUg1i1111<<>>%$#+%011PTTTTTTTTTTTTTTTTTTTTTTTTTD1i3@+#$::<<<1111a1CTTTTTTTTTTTTTTTTTTTTTTRRRRRRRRR",
"RRRRRRRRRRTTTTTTTTTTTTTTTTTTTTTTUg1i11<<<>:%$@@011ITTTTTTTTTTTTTTTTTTTTTTTTTTTD1a>+#$::<<1<11a1CTTTTTTTTTTTTTTTTTTTTTTRRRRRRRRRR",
"RRRRRRRRRRRTTTTTTTTTTTTTTTTTTTTTTUg1i11<<::$$+611ITTTTTTTTTTTTTTTTTTTTTTTTTTTTTD1a$+$%:><<11a1CTTTTTTTTTTTTTTTTTTTTTTTRRRRRRRRRR",
"RRRRRRRRRRRTTTTTTTTTTTTTTTTTTTTTTTUd1i<<>:%$#;11PTTTTTTTTTTTTTTTTTTTTTTTTTTTTTTTF1i@#%::><1p1CTTTTTTTTTTTTTTTTTTTTTTTRRRRRRRRRRR",
"RRRRRRRRRRRRTTTTTTTTTTTTTTTTTTTTTTTUg<i>>:%$*11PTYTTTTTTTTTTTTTTTTTTTTTTTTTTTTTTTF1r#$%:><p1CTTTTTTTTTTTTTTTTTTTTTTTRRRRRRRRRRRR",
"RRRRRRRRRRRRRTTTTTTTTTTTTTTTTTTTTTTTUf<u>:%->1ITTTTTTTTTTTTTTTTTTTTTTTTTTTTTTTTTTTF1q$::>p1CTTTTTTTTTTTTTTTTTTTTTTTRRRRRRRRRRRRR",
"RRRRRRRRRRRRRRTTTTTTTTTTTTTTTTTTTTTTTUf<r:;%1ITTTTTTTTTTTTTTTTTTTTTTTTTTTTTTTTTTTTTF1q%:y>VTTTTTTTTTTTTTTTTTTTTTTTTRRRRRRRRRRRRR",
"RRRRRRRRRRRRRRTTTTTTTTTTTTTTTTTTTTTTTTUs:t%1PTTTTTTTTTTTTTTTTTTTTTTTTTTTTTTTTTTTTTTTD>we>VTTTTTTTTTTTTTTTTTTTTTTTTRRRRRRRRRRRRRR",
"RRRRRRRRRRRRRRRTTTTTTTTTTTTTTTTTTTTTTTTUh:,PTTTTTTTTTTTTTTTTTTTTTTTTTTTTTTTTTTTTTTTTTD>:VTTTTTTTTTTTTTTTTTTTTTTTTRRRRRRRRRRRRRRR",
"RRRRRRRRRRRRRRRRTTTTTTTTTTTTTTTTTTTTTTTTUkPTTTTTTTTTTTTTTTTTTTTTTTTTTTTTTTTTTTTTTTTTTTSNTTTTTTTTTTTTTTTTTTTTTTTTRRRRRRRRRRRRRRRR",
"RRRRRRRRRRRRRRRRRTTTTTTTTTTTTTTTTTTTTTTTTTTTTTTTTTTTTTTTTTTTTTTTTTTTTTTTTTTTTTTTTTTTTTTTTTTTTTTTTTTTTTTTTTTTTTTRRRRRRRRRRRRRRRRR",
"RRRRRRRRRRRRRRRRRRTTTTTTTTTTTTTTTTTTTTTTTTTTTTTTTTTTTTTTTTTTTTTTTTTTTTTTTTTTTTTTTTTTTTTTTTTTTTTTTTTTTTTTTTTTTTRRRRRRRRRRRRRRRRRR",
"RRRRRRRRRRRRRRRRRRRTTTTTTTTTTTTTTTTTTTTTTTTTTTTTTTTTTTTTTTTTTTTTTTTTTTTTTTTTTTTTTTTTTTTTTTTTTTTTTTTTTTTTTTTTTRRRRRRRRRRRRRRRRRRR",
"RRRRRRRRRRRRRRRRRRRRTTTTTTTTTTTTTTTTTTTTTTTTTTTTTTTTTTTTTTTTTTTTTTTTTTTTTTTTTTTTTTTTTTTTTTTTTTTTTTTTTTTTTTTTRRRRRRRRRRRRRRRRRRRR",
"RRRRRRRRRRRRRRRRRRRRRTTTTTTTTTTTTTTTTTTTTTTTTTTTTTTTTTTTTTTTTTTTTTTTTTTTTTTTTTTTTTTTTTTTTTTTTTTTTTTTTTTTTTTRRRRRRRRRRRRRRRRRRRRR",
"RRRRRRRRRRRRRRRRRRRRRRTTTTTTTTTTTTTTTTTTTTTTTTTTTTTTTTTTTTTTTTTTTTTTTTTTTTTTTTTTTTTTTTTTTTTTTTTTTTTTTTTTTTRRRRRRRRRRRRRRRRRRRRRR",
"RRRRRRRRRRRRRRRRRRRRRRRTTTTTTTTTTTTTTTTTTTTTTTTTTTTTTTTTTTTTTTTTTTTTTTTTTTTTTTTTTTTTTTTTTTTTTTTTTTTTTTTTTRRRRRRRRRRRRRRRRRRRRRRR",
"RRRRRRRRRRRRRRRRRRRRRRRRTTTTTTTTTTTTTTTTTTTTTTTTTTTTTTTTTTTTTTTTTTTTTTTTTTTTTTTTTTTTTTTTTTTTTTTTTTTTTTTTRRRRRRRRRRRRRRRRRRRRRRRR",
"RRRRRRRRRRRRRRRRRRRRRRRRRRTTTTTTTTTTTTTTTTTTTTTTTTTTTTTTTTTTTTTTTTTTTTTTTTTTTTTTTTTTTTTTTTTTTTTTTTTTTTRRRRRRRRRRRRRRRRRRRRRRRRRR",
"RRRRRRRRRRRRRRRRRRRRRRRRRRRTTTTTTTTTTTTTTTTTTTTTTTTTTTTTTTTTTTTTTTTTTTTTTTTTTTTTTTTTTTTTTTTTTTTTTTTTTRRRRRRRRRRRRRRRRRRRRRRRRRRR",
"RRRRRRRRRRRRRRRRRRRRRRRRRRRRRTTTTTTTTTTTTTTTTTTTTTTTTTTTTTTTTTTTTTTTTTTTTTTTTTTTTTTTTTTTTTTTTTTTTTTTRRRRRRRRRRRRRRRRRRRRRRRRRRRR",
"RRRRRRRRRRRRRRRRRRRRRRRRRRRRRRTTTTTTTTTTTTTTTTTTTTTTTTTTTTTTTTTTTTTTTTTTTTTTTTTTTTTTTTTTTTTTTTTTTTRRRRRRRRRRRRRRRRRRRRRRRRRRRRRR",
"RRRRRRRRRRRRRRRRRRRRRRRRRRRRRRRRTTTTTTTTTTTTTTTTTTTTTTTTTTTTTTTTTTTTTTTTTTTTTTTTTTTTTTTTTTTTTTTTRRRRRRRRRRRRRRRRRRRRRRRRRRRRRRRR",
"RRRRRRRRRRRRRRRRRRRRRRRRRRRRRRRRRRTTTTTTTTTTTTTTTTTTTTTTTTTTTTTTTTTTTTTTTTTTTTTTTTTTTTTTTTTTTTTRRRRRRRRRRRRRRRRRRRRRRRRRRRRRRRRR",
"RRRRRRRRRRRRRRRRRRRRRRRRRRRRRRRRRRRRTTTTTTTTTTTTTTTTTTTTTTTTTTTTTTTTTTTTTTTTTTTTTTTTTTTTTTTTTRRRRRRRRRRRRRRRRRRRRRRRRRRRRRRRRRRR",
"RRRRRRRRRRRRRRRRRRRRRRRRRRRRRRRRRRRRRRTTTTTTTTTTTTTTTTTTTTTTTTTTTTTTTTTTTTTTTTTTTTTTTTTTTTTRRRRRRRRRRRRRRRRRRRRRRRRRRRRRRRRRRRRR",
"RRRRRRRRRRRRRRRRRRRRRRRRRRRRRRRRRRRRRRRRTTTTTTTTTTTTTTTTTTTTTTTTTTTTTTTTTTTTTTTTTTTTTTTTRRRRRRRRRRRRRRRRRRRRRRRRRRRRRRRRRRRRRRRR",
"RRRRRRRRRRRRRRRRRRRRRRRRRRRRRRRRRRRRRRRRRRRTTTTTTTTTTTTTTTTTTTTTTTTTTTTTTTTTTTTTTTTTTTRRRRRRRRRRRRRRRRRRRRRRRRRRRRRRRRRRRRRRRRRR",
"RRRRRRRRRRRRRRRRRRRRRRRRRRRRRRRRRRRRRRRRRRRRRRTTTTTTTTTTTTTTTTTTTTTTTTTTTTTTTTTTTTTRRRRRRRRRRRRRRRRRRRRRRRRRRRRRRRRRRRRRRRRRRRRR",
"RRRRRRRRRRRRRRRRRRRRRRRRRRRRRRRRRRRRRRRRRRRRRRRRRTTTTTTTTTTTTTTTTTTTTTTTTTTTTTTRRRRRRRRRRRRRRRRRRRRRRRRRRRRRRRRRRRRRRRRRRRRRRRRR",
"RRRRRRRRRRRRRRRRRRRRRRRRRRRRRRRRRRRRRRRRRRRRRRRRRRRRRRTTTTTTTTTTTTTTTTTTTTRRRRRRRRRRRRRRRRRRRRRRRRRRRRRRRRRRRRRRRRRRRRRRRRRRRRRR"
};
