/* XPM */
static char *_9480_0b3e74240259f85e8112d623dd9a4843157ecd80425a81dc6914a6711e580bfc[] = {
/* columns rows colors chars-per-pixel */
"32 32 190 2 ",
"   c black",
".  c #010101",
"X  c gray1",
"o  c #040404",
"O  c gray2",
"+  c #060606",
"@  c gray3",
"#  c gray4",
"$  c #0C0C0C",
"%  c gray5",
"&  c gray6",
"*  c #101010",
"=  c gray7",
"-  c gray8",
";  c #161616",
":  c gray9",
">  c #181818",
",  c #191919",
"<  c gray10",
"1  c #1E1E1E",
"2  c #202020",
"3  c gray13",
"4  c #222222",
"5  c #232323",
"6  c gray14",
"7  c #252525",
"8  c gray15",
"9  c #272727",
"0  c #282828",
"q  c gray16",
"w  c #2A2A2A",
"e  c #2C2C2C",
"r  c gray18",
"t  c #2F2F2F",
"y  c #323232",
"u  c #343434",
"i  c #353535",
"p  c #373737",
"a  c #393939",
"s  c gray23",
"d  c #3C3C3C",
"f  c gray24",
"g  c #3F3F3F",
"h  c gray26",
"j  c gray27",
"k  c #464646",
"l  c gray28",
"z  c #484848",
"x  c #494949",
"c  c #4B4B4B",
"v  c #4C4C4C",
"b  c gray30",
"n  c #505050",
"m  c #515151",
"M  c gray32",
"N  c #535353",
"B  c gray33",
"V  c #555555",
"C  c #585858",
"Z  c #5A5A5A",
"A  c gray36",
"S  c #5D5D5D",
"D  c gray38",
"F  c #626262",
"G  c #646464",
"H  c gray40",
"J  c #676767",
"K  c DimGray",
"L  c #6A6A6A",
"P  c #6C6C6C",
"I  c #6D6D6D",
"U  c gray43",
"Y  c #6F6F6F",
"T  c gray44",
"R  c #727272",
"E  c gray45",
"W  c #747474",
"Q  c gray46",
"!  c #777777",
"~  c gray47",
"^  c #7C7C7C",
"/  c gray49",
"(  c #7E7E7E",
")  c gray50",
"_  c #808080",
"`  c #818181",
"'  c gray51",
"]  c #838383",
"[  c #848484",
"{  c gray52",
"}  c #868686",
"|  c #888888",
" . c #898989",
".. c #8B8B8B",
"X. c gray55",
"o. c #8D8D8D",
"O. c #8E8E8E",
"+. c gray56",
"@. c #909090",
"#. c gray57",
"$. c #929292",
"%. c #959595",
"&. c #9A9A9A",
"*. c #9D9D9D",
"=. c gray62",
"-. c #9F9F9F",
";. c #A0A0A0",
":. c gray63",
">. c #A2A2A2",
",. c #A4A4A4",
"<. c gray65",
"1. c #A7A7A7",
"2. c gray66",
"3. c #AAAAAA",
"4. c #ACACAC",
"5. c gray68",
"6. c #AEAEAE",
"7. c #AFAFAF",
"8. c #B1B1B1",
"9. c #B2B2B2",
"0. c gray70",
"q. c #B4B4B4",
"w. c gray71",
"e. c #B6B6B6",
"r. c #B7B7B7",
"t. c gray72",
"y. c #BBBBBB",
"u. c gray74",
"i. c gray",
"p. c gray75",
"a. c #C0C0C0",
"s. c gray76",
"d. c #C3C3C3",
"f. c gray77",
"g. c #C5C5C5",
"h. c #C6C6C6",
"j. c gray78",
"k. c #C8C8C8",
"l. c gray79",
"z. c #CACACA",
"x. c #CBCBCB",
"c. c gray80",
"v. c #CDCDCD",
"b. c #CECECE",
"n. c gray81",
"m. c #D0D0D0",
"M. c gray82",
"N. c #D2D2D2",
"B. c LightGray",
"V. c gray83",
"C. c #D5D5D5",
"Z. c gray84",
"A. c #D8D8D8",
"S. c gray85",
"D. c #DADADA",
"F. c gainsboro",
"G. c #DDDDDD",
"H. c gray87",
"J. c #DFDFDF",
"K. c gray88",
"L. c #E1E1E1",
"P. c #E2E2E2",
"I. c gray89",
"U. c #E4E4E4",
"Y. c gray90",
"T. c #E6E6E6",
"R. c #E7E7E7",
"E. c gray91",
"W. c #E9E9E9",
"Q. c gray92",
"!. c #ECECEC",
"~. c gray93",
"^. c #EEEEEE",
"/. c #EFEFEF",
"(. c #F1F1F1",
"). c gray95",
"_. c #F3F3F3",
"`. c #F4F4F4",
"'. c gray96",
"]. c #F6F6F6",
"[. c gray97",
"{. c #F8F8F8",
"}. c #F9F9F9",
"|. c gray98",
" X c #FBFBFB",
".X c gray99",
"XX c #FDFDFD",
"oX c #FEFEFE",
"OX c white",
"+X c None",
/* pixels */
"+X+X+X+X+X+X+X+X+X+X+X+X+X+XOX|.OXOX+X+X+X+X+X+X+X+X+X+X+X+X+X+X",
"+X+X+X+X+X+X+X+X+X+XOXOXC.>.Y H E ( q.S.`.OX+X+X+X+X+X+X+X+X+X+X",
"+X+X+X+X+X+X+X+XOXOXD.^   W 4.9.e.)     z 0.(.`.+X+X+X+X+X+X+X+X",
"+X+X+X+X+X+X+XOX/.%.o.h.W. XOXOXOXOXR.2.    l A.OX+X+X+X+X+X+X+X",
"+X+X+X+X+XXXOXOX).|.OXOXOXW.'.OX`.].XXOXc.2     f.OX.X+X+X+X+X+X",
"+X+X+X+XXXOXoX}.XXOXXX}.oX^.]. X].}.[.}.OXM.C   , !.OXXX+X+X+X+X",
"+X+X+X+XOXOXXXoX.XOXoX.XOXQ.!.}. XXX X.X XOXm.    X.OXOX+X+X+X+X",
"+X+X+XOXE.F.C.W.OXXXXXXXoX{.~.`.OX|.{.OX.XOXG.  q   N.OXOX+X+X+X",
"+X+XOX Xe V X.4.OXoXXXoXOX X!.{.XXXX X.X}.OXn.  8   #.XXOX}.+X+X",
"+X+XOX}.j     h E.OX XoX XU.{.{. XXX.XOXOX}.}.~   & 7 T.oXOX+X+X",
"+XOXOX*.+ y O c W.OXoXOX|.(.XXOX.X XOXXX`.OX^.5   5   Z.OXOXOX+X",
"+XOX{.A.)     Q OXOXXX X'.|.}.oXoXOX!.W i <.`.&.  r   l.OXoXOX+X",
"+XOXoXJ.] k.^ 5.a.| R Z -.OXOX|. X{.E   +   L b.(     f.OXXXOX+X",
"OXOX}.'.4.w.f. .          Z.E.I.U.P   5 + 7     K >   f.OXXXOXOX",
"OXOXoXOXe.` t.  / d . 7   X.w.W.Y.S : o X   < +   3   j.OXoXOXOX",
"OXOXoX}.,.* 4.; L 1 X % 6 :.Q.H.H.I r ,   .   # : 9   z.OXoXOXOX",
"OXOXoX{.@.B =.p     @     A.z.~.l.:     8 2 ,   a $.  B.OXoXOXOX",
"OXOXoXOXv.  8.j.  t : u t.OX=.a.e.D v U         >.2.  U.OXXXOXOX",
"OXOXoXOXA.x F XXJ.J.~.).(.P.a.    <.[ T.g.w.q.l.p.g   c.OXXXOXOX",
"+XOX|.OXT.s u.M.Q.}.U.}.c.N.}     ! 1.s.Q.(.OXj.  L   Y oXOXOX+X",
"+XOXXXOX_.0 y.oXoXOXL._.[.b.        z.6.P M.(.$...;.  G  XOXOX+X",
"+XOXOXoXOXb.  ' ,.M.V.U.OX`.M m J ! Q.O...B.v   s e   R  XOX{.+X",
"+XOXOXOXOXOX^         Q OXOXu.K.`..X).e.$     w = 2   r.OXOX}.+X",
"+X+XOXOXXXOXY.s     n 7.oX{..X}.].OXP.z.p   4       ( [.OXOX+X+X",
"+X+X+XOXOXoXOX`.d.R   u.OXOX.XoX.XOXOXU.& -   L d.T.OXOXOX+X+X+X",
"+X+X+XOXOXOXoXOXOXoXT k i.x.K._._.^.a.#.    E |.OXOXOXOXOX+X+X+X",
"+X+X+X+XOXOXOXOX.XOXH.+.d.P.W.K.T.V.t.s.@.  3.OX}..XOXOX+X+X+X+X",
"+X+X+X+X+XOXOXOXOXXXOXN._ u.C.T./.V.4.E N   %.XX[.OX|.+X+X+X+X+X",
"+X+X+X+X+X+XOXOXOXOXOX_.      9 f       >   } OXOX}.+X+X+X+X+X+X",
"+X+X+X+X+X+X+XOXOXOXOXOXF.b         @       Z.OXOX+X+X+X+X+X+X+X",
"+X+X+X+X+X+X+X+X+XOXOXOXOXOXw.H v < y A { w.'.+X+X+X+X+X+X+X+X+X",
"+X+X+X+X+X+X+X+X+X+X+X+X.XOXOX X].E.I.Y.+X+X+X+X+X+X+X+X+X+X+X+X"
};
