/* XPM */
static char *result[] = {
/* columns rows colors chars-per-pixel */
"32 32 171 2 ",
"   c #BC0000",
".  c #BD0101",
"X  c #BF0000",
"o  c #BE0101",
"O  c #BB0606",
"+  c #BB0B0B",
"@  c #BF2828",
"#  c #C20202",
"$  c #C40000",
"%  c #C60000",
"&  c #C40505",
"*  c #CC0000",
"=  c #CE0000",
"-  c #CC0909",
";  c #CB0D0D",
":  c #D30000",
">  c #D60000",
",  c #D70000",
"<  c #D40202",
"1  c #D80000",
"2  c #D90000",
"3  c #DA0000",
"4  c #DB0000",
"5  c #DC0000",
"6  c #DD0000",
"7  c #DE0101",
"8  c #C51919",
"9  c #C21F1F",
"0  c #C91A1A",
"q  c #D91717",
"w  c #D51E1E",
"e  c #E00000",
"r  c #E10000",
"t  c #E20000",
"y  c #E40000",
"u  c #E50000",
"i  c #E60000",
"p  c #E90101",
"a  c #EA0000",
"s  c #EB0202",
"d  c #EC0000",
"f  c #ED0000",
"g  c #EE0000",
"h  c #EF0000",
"j  c #E40909",
"k  c #E30D0D",
"l  c #F10000",
"z  c #F20000",
"x  c #F40000",
"c  c #F50000",
"v  c #F60000",
"b  c #F70000",
"n  c #F50202",
"m  c #F40606",
"M  c #F80000",
"N  c #F90000",
"B  c #FA0000",
"V  c #FB0000",
"C  c #FC0000",
"Z  c #FD0000",
"A  c #FE0000",
"S  c red",
"D  c #FE0101",
"F  c #FF0101",
"G  c #FF0202",
"H  c #FF0505",
"J  c #FF0707",
"K  c #F20D0D",
"L  c #FF0808",
"P  c #FF0909",
"I  c #FF0B0B",
"U  c #FF0D0D",
"Y  c #FF0F0F",
"T  c #E51C1C",
"R  c #E81818",
"E  c #F01616",
"W  c #FF1616",
"Q  c #FB1919",
"!  c #FC1818",
"~  c #FF1818",
"^  c #FF1919",
"/  c #FF1A1A",
"(  c #FF1B1B",
")  c #FF1C1C",
"_  c #FF1D1D",
"`  c #FF1F1F",
"'  c #C12626",
"]  c #C82020",
"[  c #CA2727",
"{  c #CD2525",
"}  c #CE2626",
"|  c #CF2828",
" . c #DF2E2E",
".. c #E02B2B",
"X. c #FF2020",
"o. c #FE2323",
"O. c #FF2323",
"+. c #FF2424",
"@. c #FE2525",
"#. c #FF2626",
"$. c #FF2727",
"%. c #FE2828",
"&. c #FF2828",
"*. c #FE2929",
"=. c #FF2C2C",
"-. c #E63535",
";. c #E63737",
":. c #FF3030",
">. c #FF3333",
",. c #FF3636",
"<. c #F54D4D",
"1. c #FE4848",
"2. c #FF4848",
"3. c #FF4F4F",
"4. c #F55D5D",
"5. c #FF5959",
"6. c #FF5F5F",
"7. c #FF7171",
"8. c #F87575",
"9. c #FF7474",
"0. c #F98383",
"q. c #FF8080",
"w. c #FF8282",
"e. c #FF9D9D",
"r. c #FF9E9E",
"t. c #F5A0A0",
"y. c #FFA0A0",
"u. c #FFA7A7",
"i. c #F7AAAA",
"p. c #FEA8A8",
"a. c #FFA8A8",
"s. c #FFAAAA",
"d. c #FFAFAF",
"f. c #F5B6B6",
"g. c #FEB1B1",
"h. c #FFB2B2",
"j. c #FFB7B7",
"k. c #F6BEBE",
"l. c #FABABA",
"z. c #FFB8B8",
"x. c #FFB9B9",
"c. c #FFBABA",
"v. c #FEBCBC",
"b. c #FFBFBF",
"n. c #F8C1C1",
"m. c #FBC3C3",
"M. c #FFC1C1",
"N. c #FFC3C3",
"B. c #FEC5C5",
"V. c #FFC6C6",
"C. c #F9C8C8",
"Z. c #FFCACA",
"A. c #FFCDCD",
"S. c #FAE7E7",
"D. c #FFE7E7",
"F. c #FBECEC",
"G. c #FFEDED",
"H. c #FFEEEE",
"J. c #FFF2F2",
"K. c #FFF3F3",
"L. c #FCF4F4",
"P. c #FDF7F7",
"I. c #FFF6F6",
"U. c snow",
"Y. c #FEFDFD",
"T. c #FFFDFD",
"R. c #FEFEFE",
"E. c #FFFEFE",
"W. c #FEFFFF",
"Q. c white",
"!. c None",
/* pixels */
"!.!.!.!.!.!.!.!.!.!.!.!.Q.Q.Q.Q.Q.Q.Q.Q.!.!.!.!.!.!.!.!.!.!.!.!.",
"!.!.!.!.!.!.!.!.!.Q.Q.Q.Q.Q.Q.Q.Q.Q.Q.Q.Q.Q.Q.!.!.!.!.!.!.!.!.!.",
"!.!.!.!.!.!.!.Q.Q.Q.Q.Q.Q.Q.Q.Q.Q.Q.Q.Q.Q.Q.Q.Q.Q.!.!.!.!.!.!.!.",
"!.!.!.!.!.!.Q.Q.Q.Q.T.Q.Q.Q.Q.Q.Q.Q.Q.Q.Q.T.Q.Q.Q.Q.!.!.!.!.!.!.",
"!.!.!.!.!.Q.Q.Q.E.Q.Q.E.E.Q.Q.Q.Q.Q.Q.Q.E.Q.Q.E.Q.Q.Q.!.!.!.!.!.",
"!.!.!.!.Q.Q.Q.E.Q.P.n.Q.Q.E.Q.Q.Q.Q.Q.R.Q.C.F.Q.T.Q.Q.Q.!.!.!.!.",
"!.!.!.Q.Q.Q.E.Q.T.0.r i.Q.W.E.Q.Q.Q.T.Q.m.e 4.K.Q.T.Q.Q.Q.!.!.!.",
"!.!.Q.Q.Q.E.Q.T.q.C -., a.Q.Q.E.Q.T.W.M.6 ..V 5.K.Q.T.Q.Q.Q.!.!.",
"!.!.Q.Q.E.Q.T.q.S *.b } y a.W.E.T.W.M.f 0 m @.S 5.K.Q.T.Q.Q.!.!.",
"!.Q.Q.Q.Q.I.w.S &.S Z s ' M a.W.Q.M.A 8 k Z S #.S 6.G.Q.E.Q.Q.!.",
"!.Q.Q.T.Q.Z.S :.G S A V < { S g.B.S q ; N A F S ,.S d.Q.E.Q.Q.!.",
"!.Q.Q.Q.E.Q.c.S X.P S A x o R S S K + g A S S &.S y.Q.Q.Q.Q.Q.!.",
"Q.Q.Q.Q.Q.E.Q.z.S X.P S Z t . ! ^ & 1 C S S &.S r.Q.Q.E.Q.Q.Q.Q.",
"Q.Q.Q.Q.Q.E.E.Q.z.S ` J A N * 7 p $ v A S $.S r.Q.Q.E.Q.Q.Q.Q.Q.",
"Q.Q.Q.Q.Q.Q.E.E.Q.z.S Y H Z l 5 3 f Z S _ S e.Q.Q.E.Q.Q.Q.Q.Q.Q.",
"Q.Q.Q.Q.Q.Q.Q.Q.T.Q.b.S W G Z M b C S ( S u.Q.Q.E.Q.Q.Q.Q.Q.Q.Q.",
"Q.Q.Q.Q.Q.Q.Q.Q.T.Q.V.S W G Z N M C S ) S d.Q.E.E.Q.Q.Q.Q.Q.Q.Q.",
"Q.Q.Q.Q.Q.Q.Q.T.Q.M.S L J A z 6 4 h Z S ) S u.Q.Q.E.Q.Q.Q.Q.Q.Q.",
"Q.Q.Q.Q.Q.Q.T.Q.M.S ~ I A B = 5 i % v A S +.S a.Q.Q.E.Q.Q.Q.Q.Q.",
"Q.Q.Q.Q.Q.E.Q.M.S ^ U S Z u   Q ) # 4 C S G #.S a.Q.Q.E.Q.Q.Q.Q.",
"!.Q.Q.Q.E.Q.N.S / U S A c X T S S E O h A S G #.S s.Q.E.Q.Q.Q.!.",
"!.Q.Q.T.Q.A.S =.J S S V > [ S p.v.S w - N A S S >.S h.Q.E.Q.Q.!.",
"!.Q.Q.Q.Q.J.9.S $.S D d @ v r.W.Q.j.Z 9 j Z S O.S 3.D.Q.E.Q.Q.!.",
"!.!.Q.Q.E.Q.U.7.S %.M | e r.W.Q.T.W.z.a ] n o.S 2.H.Q.T.Q.Q.!.!.",
"!.!.Q.Q.Q.T.Q.U.7.Z ;.: r.Q.Q.E.Q.E.W.x.2  .V 1.H.Q.T.Q.Q.Q.!.!.",
"!.!.!.Q.Q.Q.E.Q.U.8.6 t.Q.W.E.Q.Q.Q.E.Q.l.5 <.H.Q.T.Q.Q.Q.!.!.!.",
"!.!.!.!.Q.Q.Q.T.Q.L.f.Q.W.E.Q.Q.Q.Q.Q.R.Q.k.S.Q.T.Q.Q.Q.!.!.!.!.",
"!.!.!.!.!.Q.Q.Q.Y.Q.Q.Q.E.Q.Q.Q.Q.Q.Q.Q.E.Q.Q.T.Q.Q.Q.!.!.!.!.!.",
"!.!.!.!.!.!.Q.Q.Q.R.E.Q.Q.Q.Q.Q.Q.Q.Q.Q.Q.E.E.Q.Q.Q.!.!.!.!.!.!.",
"!.!.!.!.!.!.!.Q.Q.Q.Q.Q.Q.Q.Q.Q.Q.Q.Q.Q.Q.Q.Q.Q.Q.!.!.!.!.!.!.!.",
"!.!.!.!.!.!.!.!.!.Q.Q.Q.Q.Q.Q.Q.Q.Q.Q.Q.Q.Q.Q.!.!.!.!.!.!.!.!.!.",
"!.!.!.!.!.!.!.!.!.!.!.!.Q.Q.Q.Q.Q.Q.Q.Q.!.!.!.!.!.!.!.!.!.!.!.!."
};
