/* XPM */
static char *_a0ac931ad9448cdd6998fdc5137b45a[] = {
/* columns rows colors chars-per-pixel */
"32 32 250 2 ",
"   c #48001C",
".  c #600039",
"X  c #51004E",
"o  c #6F1E44",
"O  c #591E66",
"+  c #750078",
"@  c #7C3170",
"#  c #830001",
"$  c #830002",
"%  c #8E0000",
"&  c #A60000",
"*  c #C9003F",
"=  c #F10025",
"-  c #F10026",
";  c #E5003D",
":  c #E6003D",
">  c #EB1339",
",  c #F62935",
"<  c #FA2B32",
"1  c #FD2B32",
"2  c #FD2C32",
"3  c #FA393E",
"4  c #FE402E",
"5  c #9E334A",
"6  c #9D2956",
"7  c #AD007D",
"8  c #B60071",
"9  c #832676",
"0  c #B7377F",
"q  c #BA377F",
"w  c #BA387F",
"e  c #BC387F",
"r  c #CA0040",
"t  c #DF0046",
"y  c #D8004F",
"u  c #CF0055",
"i  c #FF0B42",
"p  c #FF0C42",
"a  c #EB165D",
"s  c #D03A59",
"d  c #DF3C5B",
"f  c #EC3C4F",
"g  c #F63942",
"h  c #F63C42",
"j  c #F43C46",
"k  c #F73D47",
"l  c #F23D4A",
"z  c #F23E4B",
"x  c #F13E4C",
"c  c #FC255A",
"v  c #E63B55",
"b  c #E73B55",
"n  c #E63C54",
"m  c #E63D56",
"M  c #E73D56",
"N  c #EB3D50",
"B  c #EC3D50",
"V  c #ED3D50",
"C  c #E03B5B",
"Z  c #E13C5B",
"A  c #E53C5C",
"S  c #E93F58",
"D  c #F23E51",
"F  c #C91D67",
"G  c #C11B70",
"H  c #CF3968",
"J  c #DA3A61",
"K  c #D83B62",
"L  c #DA3B62",
"P  c #D23A68",
"I  c #D23B68",
"U  c #D43B69",
"Y  c #C33877",
"T  c #C33977",
"R  c #CB3970",
"E  c #CB3A70",
"W  c #CB3F72",
"Q  c #CC3F72",
"!  c #C43E79",
"~  c #E13E64",
"^  c #856C69",
"/  c #876E6F",
"(  c #876F70",
")  c #876B76",
"_  c #886B76",
"`  c #BA797B",
"'  c #CA445A",
"]  c #F2404D",
"[  c #F2424F",
"{  c #F7444C",
"}  c #FA4349",
"|  c #FD4948",
" . c #ED4757",
".. c #E7475D",
"X. c #FA4C5A",
"o. c #D3426C",
"O. c #DB4668",
"+. c #E14762",
"@. c #EA4C61",
"#. c #C56B6B",
"$. c #C66B6C",
"%. c #CE6C6A",
"&. c #CE6C6B",
"*. c #D66E75",
"=. c #D66F75",
"-. c #EF7178",
";. c #EF7179",
":. c #EA727C",
">. c #EA727D",
",. c #7A00AD",
"<. c #6E18BD",
"1. c #6F19BE",
"2. c #7B17B3",
"3. c #7B18B3",
"4. c #7F2FB3",
"5. c #7429BF",
"6. c #7837BF",
"7. c #4E00D8",
"8. c #4F00D8",
"9. c #6D00CA",
"0. c #6315C8",
"q. c #6317C8",
"w. c #6931CA",
"e. c #7A3DC6",
"r. c #8F009C",
"t. c #990091",
"y. c #A30087",
"u. c #923F8F",
"i. c #9E3498",
"p. c #9F3499",
"a. c #9F3599",
"s. c #A13488",
"d. c #A13588",
"f. c #B13687",
"g. c #B23687",
"h. c #B23788",
"j. c #B7398A",
"k. c #B8398A",
"l. c #A83590",
"z. c #A83690",
"x. c #A93690",
"c. c #AA3692",
"v. c #A03599",
"b. c #A4379B",
"n. c #8100A5",
"m. c #8100A6",
"M. c #8C33AB",
"N. c #8931AC",
"B. c #8B32AC",
"V. c #8B33AC",
"C. c #8C35AC",
"Z. c #8D39AC",
"A. c #9533A2",
"S. c #9534A1",
"D. c #9634A2",
"F. c #9834A7",
"G. c #802AB5",
"H. c #8131B6",
"J. c #8231B6",
"K. c #8339B6",
"L. c #8439B6",
"P. c #BB4082",
"I. c #B4428B",
"U. c #AB4293",
"Y. c #A2419C",
"T. c #A2429C",
"R. c #927889",
"E. c #92798A",
"W. c #8F7295",
"Q. c #907295",
"!. c #BD729D",
"~. c #BD729E",
"^. c #9840A5",
"/. c #9844AF",
"(. c #AF71AA",
"). c #B672A3",
"_. c #B672A4",
"`. c #A66FB1",
"'. c #A76FB1",
"]. c #D87087",
"[. c #DF7284",
"{. c #C47096",
"}. c #CE7D9A",
"|. c #D57D94",
" X c #E57280",
".X c #EB748A",
"XX c #FC74A4",
"oX c #FC75A4",
"OX c #8D42C0",
"+X c #8D43C0",
"@X c #8F71C5",
"#X c #FDD9D9",
"$X c #FFD9D8",
"%X c #FED9D9",
"&X c #FFD9D9",
"*X c #FCD9DA",
"=X c #FCDADA",
"-X c #FADBDC",
";X c #FBDBDC",
":X c #DED8EC",
">X c #DDD8EF",
",X c #DCD9F1",
"<X c #DFDBF6",
"1X c #DFDCF6",
"2X c #E1D9EA",
"3X c #E1D9EB",
"4X c #E4DBE9",
"5X c #FFDCE9",
"6X c #FDEDED",
"7X c #FDEDEE",
"8X c #F3F3EB",
"9X c #EFEDF6",
"0X c #F1EDF4",
"qX c #FFEEF6",
"wX c #F2F3F0",
"eX c #F3F3F0",
"rX c #F4F3F3",
"tX c #F4F3F4",
"yX c #F5F3F4",
"uX c #F7F3F6",
"iX c #F7F3F7",
"pX c #F6F5F6",
"aX c #FCF3F1",
"sX c #FEF3F0",
"dX c #FCF3F3",
"fX c #FDF3F3",
"gX c #FEF3F2",
"hX c #FEF3F3",
"jX c #F8F3F5",
"kX c #FAF3F4",
"lX c #FBF3F4",
"zX c #F8F3F6",
"xX c #FCF3F4",
"cX c #FDF3F4",
"vX c #FAF5F5",
"bX c #FAF5F6",
"nX c #FBF5F6",
"mX c #FAF6F6",
"MX c #FDFDFD",
"NX c #FEFDFD",
"BX c #FFFDFD",
"VX c #FDFDFE",
"CX c #FEFDFE",
"ZX c #FFFDFE",
"AX c #FEFEFE",
"SX c #FFFEFE",
"DX c #FEFEFF",
"FX c #FFFEFF",
"GX c gray100",
"HX c None",
/* pixels */
"HXHXHXHXGXGXGXGXGXGXGXGXGXGXGXGXGXGXGXGXGXGXGXGXGXGXGXGXHXHXHXHX",
"HXHXHXGXGXGXGXGXGXGXGXGXGXGXGXGXGXGXGXGXGXGXGXGXGXGXGXGXGXHXHXHX",
"HXHXGXGXGXGXGXGXGXGXGXGXGXGXGXGXGXGXGXGXGXGXGXGXGXGXGXGXGXGXHXHX",
"HXGXGXGXGXGXGXGXGXGXGXGXGXGXGXGXGXGXGXGXVXGXGXGXGXGXGXGXGXGXGXHX",
"GXGXGXGXGXGXGXGXGX<X9XGXGXGXGXGXGXGXGXMXGX9X1XGXMXGXGXGXGXGXGXGX",
"GXGXGXGXGXGXGXGX,X7.@X8XGXMXGXGXGXGXMXGX8X@X7.,XGXMXGXGXGXGXGXGX",
"GXGXGXGXGXMXGX>X0.w.9.W.wXGXGXGXGXMXGXeXW.9.w.0.>XGXGXGXGXGXGXGX",
"GXGXGXGXMXGX:X<.5.6.e.,.( eXGXGXGXGXeX/ ,.e.6.5.<.>XGXGXGXGXGXGX",
"GXGXGXGXGX2X3.G.L.H.4.+X+ ^ uXGXGXyX^ + +X4.J.L.G.2.2XGXGXGXGXGX",
"GXGXMXGX4Xn.C.Z.B.B.B.B./.. _ pXpX) . /.B.M.M.M.Z.C.n.4XGXGXGXGX",
"GXGXGXGX0X`.r.F.A.S.S.S.F.u.  E.R.  u.F.S.A.S.S.F.r.'.0XGXGXGXGX",
"GXGXGXMXGXpX(.t.Y.a.a.v.a.v.@ X X @ b.i.v.i.v.T.t.(.pXGXGXGXGXGX",
"GXGXGXGXMXGXuX).y.U.l.l.l.l.s.O O d.l.x.x.x.U.y.).yXGXMXGXGXGXGX",
"GXGXGXGXGXMXGXjX!.7 I.g.h.h.j.9 9 k.g.h.g.I.7 !.uXGXGXGXGXGXGXGX",
"GXGXGXGXGXGXMXGXjX{.8 P.e e e 0 0 q e e k.8 {.jXGXMXGXGXGXGXGXGX",
"GXGXGXGXGXGXGXGXGXbX}.G ! T T T T T T ! G }.jXGXGXGXGXGXGXGXGXGX",
"GXGXGXGXGXGXGXGXGXnX|.F Q R R R E R R W F |.nXGXGXGXGXGXGXGXGXGX",
"GXGXGXGXGXGXGXGXjX].u o.I I I H H I I I o.u ].jXGXGXGXGXGXGXGXGX",
"GXGXGXGXGXBXGXjX Xy O.K K K ~ 6 6 ~ K K K O.y [.aXGXMXGXGXGXGXGX",
"GXGXGXGXBXGXjX>.t +.C Z Z A s o o s A C Z C +.t >.jXGXMXGXGXGXGX",
"GXGXGXGXGXdX>.; ..b n m n S 5 # $ 5 S n n n b ..; >.cXGXGXGXGXGX",
"GXGXMXGX7X;.>  .N B B N D ' % ` ` % ' D N B B B  .> ;.7XGXGXGXGX",
"GXGXGXGX;X= [ [ z z x j @.& #.bXbX#.& @.j x x z [ x = -XGXMXGXGX",
"GXGXGXMXGX#X, g { j h X.* &.aXGXGXdX%.r X.h k { g , #XGXGXGXGXGX",
"GXGXGXGXBXGX$X< 3 } | a *.dXGXGXMXGXdX*.a | } 3 < #XGXBXGXGXGXGX",
"GXGXGXGXGXBXGX$X1 4 c .XsXGXBXGXGXBXGXsX.Xc 4 1 #XGXBXGXGXGXGXGX",
"GXGXGXGXGXGXMXGX$Xi XXsXGXBXGXGXGXGXBXGXsXXXi $XGXGXGXGXGXGXGXGX",
"GXGXGXGXGXGXGXMXGX5XqXGXMXGXGXGXGXGXGXGXGXqX5XGXGXGXGXGXGXGXGXGX",
"HXGXGXGXGXGXGXGXMXGXGXGXGXGXGXGXGXGXGXGXGXGXGXGXGXGXGXGXGXGXGXHX",
"HXHXGXGXGXGXGXGXGXGXGXGXGXGXGXGXGXGXGXGXGXGXGXGXGXGXGXGXGXGXHXHX",
"HXHXHXGXGXGXGXGXGXGXGXGXGXGXGXGXGXGXGXGXGXGXGXGXGXGXGXGXGXHXHXHX",
"HXHXHXHXGXGXGXGXGXGXGXGXGXGXGXGXGXGXGXGXGXGXGXGXGXGXGXGXHXHXHXHX"
};
