/* XPM */
static char *_41c12b10f8447b2b4820227654804c8[] = {
/* columns rows colors chars-per-pixel */
"32 32 157 2 ",
"   c #3E0000",
".  c #550017",
"X  c #56001E",
"o  c #74163E",
"O  c #4F0044",
"+  c #5B1C65",
"@  c #680076",
"#  c #690078",
"$  c #792B6D",
"%  c #7E2575",
"&  c #920000",
"*  c #9D0000",
"=  c #B20000",
"-  c #99233E",
";  c #ED0000",
":  c #FC0203",
">  c #F90013",
",  c #F4001F",
"<  c #FA0018",
"1  c #D8003F",
"2  c #E70021",
"3  c #F40022",
"4  c #E00032",
"5  c #F93E3F",
"6  c #8F2451",
"7  c #922551",
"8  c #B4006D",
"9  c #AA007B",
"0  c #802676",
"q  c #B5377F",
"w  c #BA377F",
"e  c #BB387F",
"r  c #CF0047",
"t  c #D10041",
"y  c #EF005E",
"u  c #F0005E",
"i  c #FE005E",
"p  c #C43B54",
"a  c #C93A56",
"s  c #DA3B5F",
"d  c #EF3D4D",
"f  c #F53D47",
"g  c #F43E49",
"h  c #EA3C52",
"j  c #E33C59",
"k  c #E83D5A",
"l  c #C0066C",
"z  c #C00A6D",
"x  c #CA1664",
"c  c #CA3766",
"v  c #CC3A6F",
"b  c #D43B67",
"n  c #DB3B60",
"m  c #D63B68",
"M  c #C33977",
"N  c #CC3F71",
"B  c #C33F79",
"V  c #E23E61",
"C  c #F84146",
"Z  c #FD4C4D",
"A  c #E7435B",
"S  c #E9475C",
"D  c #F54353",
"F  c #F54952",
"G  c #FA4950",
"H  c #F04F5C",
"J  c #FB485C",
"K  c #DC4566",
"L  c #D5406A",
"P  c #E44660",
"I  c #FF7A75",
"U  c #FC7779",
"Y  c #F6797D",
"T  c #FC7B7D",
"R  c #6B00AB",
"E  c #7200B7",
"W  c #7300B8",
"Q  c #792FB8",
"!  c #7930B8",
"~  c #7F3DBC",
"^  c #4700CC",
"/  c #4900CC",
"(  c #6600C2",
")  c #7844CD",
"_  c #7E5EC9",
"`  c #7661D6",
"'  c #7965D6",
"]  c #9F0086",
"[  c #800099",
"{  c #930091",
"}  c #8E3B8F",
"|  c #9F3589",
" . c #8F3C90",
".. c #9C349B",
"X. c #9E3A9D",
"o. c #AF3688",
"O. c #BA3780",
"+. c #BA3980",
"@. c #B13688",
"#. c #B33A8A",
"$. c #A63591",
"%. c #A93694",
"&. c #A73892",
"*. c #A83D93",
"=. c #A1399E",
"-. c #8102AD",
";. c #9234A5",
":. c #9537AB",
">. c #8732B1",
",. c #8833B0",
"<. c #8B3DB1",
"1. c #803CBC",
"2. c #9642A8",
"3. c #9441B1",
"4. c #9360B7",
"5. c #9564B8",
"6. c #F67E81",
"7. c #8740C5",
"8. c #885EC0",
"9. c #8A61C0",
"0. c #8161CA",
"q. c #B2AAA6",
"w. c #B5ACAA",
"e. c #BBB1B6",
"r. c #BDB4B8",
"t. c #EEAAAF",
"y. c #F2ACAF",
"u. c #E6ACB4",
"i. c #EBACB2",
"p. c #F2AFB2",
"a. c #E3B3BD",
"s. c #E6BCBC",
"d. c #EBBDBC",
"f. c #F7BCBD",
"g. c #BBAEC1",
"h. c #BFB7E5",
"j. c #D6BCCF",
"k. c #DCBDCC",
"l. c #D5BED3",
"z. c #E2BFCA",
"x. c #F7BFC0",
"c. c #F9BFCC",
"v. c #C0B8E6",
"b. c #DFC3C3",
"n. c #D3C4DB",
"m. c #E3C1CC",
"M. c #FFCBE0",
"N. c #FDEFEF",
"B. c #ECE6F0",
"V. c #EEEBF4",
"C. c #E8E7FA",
"Z. c #EDECF9",
"A. c #F0EEF7",
"S. c #FFEEF1",
"D. c #FFF4F4",
"F. c #FFFFFF",
"G. c None",
/* pixels */
"G.G.G.G.G.G.G.G.G.G.G.G.G.G.G.G.G.G.G.G.G.G.G.G.G.G.G.G.G.G.G.G.",
"G.G.G.G.G.F.F.F.F.F.F.F.F.F.F.F.F.F.F.F.F.F.F.F.F.F.F.G.G.G.G.G.",
"G.G.G.G.F.F.F.F.F.F.F.F.F.F.F.F.F.F.F.F.F.F.F.F.F.F.F.F.G.G.G.G.",
"G.G.G.F.F.F.F.F.F.F.F.F.F.F.F.F.F.F.F.F.F.F.F.F.F.F.F.F.F.G.G.G.",
"G.G.F.F.F.F.F.F.F.F.F.F.F.F.F.F.F.F.F.F.F.F.F.F.F.F.F.F.F.F.G.G.",
"G.F.F.F.F.F.F.F.F.C.h.F.F.F.F.F.F.F.F.F.F.h.C.F.F.F.F.F.F.F.F.G.",
"G.F.F.F.F.F.F.F.A.' ^ g.F.F.F.F.F.F.F.F.g./ ` A.F.F.F.F.F.F.F.G.",
"G.F.F.F.F.F.F.A._ ( ) R q.F.F.F.F.F.F.w.R ) ( _ V.F.F.F.F.F.F.G.",
"G.F.F.F.F.F.V.9.E ~ Q 7.# q.F.F.F.F.w.@ 7.! ~ E 8.A.F.F.F.F.F.G.",
"G.F.F.F.F.B.5.-.<.,.,.>.3.X w.F.F.w.. 3.>.>.>.<.W 4.B.F.F.F.F.G.",
"G.F.F.F.F.n.[ 2.;.;.;.;.:. .  r.r.  } :.;.;.;.;.2.[ n.F.F.F.F.G.",
"G.F.F.F.F.F.n.{ X.........=.$ O O $ =.......X.X.] l.F.F.F.F.F.G.",
"G.F.F.F.F.F.F.j.] *.*.&.&.%.| + + | %.&.&.&.*.] j.F.F.F.F.F.F.G.",
"G.F.F.F.F.F.F.F.m.9 #.#.@.@.#.% % #.@.@.o.#.9 k.F.F.F.F.F.F.F.G.",
"G.F.F.F.F.F.F.F.F.k.8 +.e e e q q w w w e 8 k.F.F.F.F.F.F.F.F.G.",
"G.F.F.F.F.F.F.F.F.F.m.8 B M M M M M M B l z.F.F.F.F.F.F.F.F.F.G.",
"G.F.F.F.F.F.F.F.F.F.a.x N v v v v v v N x a.F.F.F.F.F.F.F.F.F.G.",
"G.F.F.F.F.F.F.F.F.u.r L b b m c c m b b L r u.F.F.F.F.F.F.F.F.G.",
"G.F.F.F.F.F.F.F.i.t K s n s V 7 6 V s n s K 1 u.F.F.F.F.F.F.F.G.",
"G.F.F.F.F.F.F.i.4 P j j j k a o o a k j j j A 4 t.F.F.F.F.F.F.G.",
"G.F.F.F.F.F.p.2 S h h h h A - & & - A h h h h S 2 y.F.F.F.F.F.G.",
"G.F.F.F.F.x.; H d d d d D p * b.b.* p D d d d d H ; f.F.F.F.F.G.",
"G.F.F.F.F.N.6., F f C C A = s.F.F.s.= A C g g F 3 Y N.F.F.F.F.G.",
"G.F.F.F.F.F.D.T > Z f J 1 s.F.F.F.F.d.t J 5 G < U D.F.F.F.F.F.G.",
"G.F.F.F.F.F.F.D.T : Z u d.F.F.F.F.F.F.d.u Z : U D.F.F.F.F.F.F.G.",
"G.F.F.F.F.F.F.F.D.I i c.F.F.F.F.F.F.F.F.c.i I D.F.F.F.F.F.F.F.G.",
"G.G.F.F.F.F.F.F.F.S.M.F.F.F.F.F.F.F.F.F.F.M.N.F.F.F.F.F.F.F.G.G.",
"G.G.F.F.F.F.F.F.F.F.F.F.F.F.F.F.F.F.F.F.F.F.F.F.F.F.F.F.F.F.G.G.",
"G.G.G.F.F.F.F.F.F.F.F.F.F.F.F.F.F.F.F.F.F.F.F.F.F.F.F.F.F.G.G.G.",
"G.G.G.G.F.F.F.F.F.F.F.F.F.F.F.F.F.F.F.F.F.F.F.F.F.F.F.F.G.G.G.G.",
"G.G.G.G.G.G.F.F.F.F.F.F.F.F.F.F.F.F.F.F.F.F.F.F.F.F.G.G.G.G.G.G.",
"G.G.G.G.G.G.G.G.G.G.G.G.G.G.G.G.G.G.G.G.G.G.G.G.G.G.G.G.G.G.G.G."
};
