/* XPM */
static char *_ecc5dd5c6ad416a98e07ab0d19ddeff[] = {
/* columns rows colors chars-per-pixel */
"64 64 256 2 ",
"   c #340000",
".  c #450000",
"X  c #480000",
"o  c #590018",
"O  c #4A0024",
"+  c #570027",
"@  c #52003A",
"#  c #5E163D",
"$  c #790028",
"%  c #650E3C",
"&  c #7C063A",
"*  c #7E1A32",
"=  c #5E2426",
"-  c #62213E",
";  c #570047",
":  c #580749",
">  c #5C114E",
",  c #4F005B",
"<  c #5E0054",
"1  c #50005B",
"2  c #7A0C40",
"3  c #63144E",
"4  c #60005D",
"5  c #6E2559",
"6  c #70265C",
"7  c #74325B",
"8  c #440466",
"9  c #5B0B65",
"0  c #5B1766",
"q  c #640663",
"w  c #641C66",
"e  c #6B2160",
"r  c #782A68",
"t  c #9A0002",
"y  c #9A091C",
"u  c #A10000",
"i  c #AF0500",
"p  c #B00200",
"a  c #BF0000",
"s  c #BB0F13",
"d  c #B91214",
"f  c #9E0C2F",
"g  c #8F1424",
"h  c #981227",
"j  c #800035",
"k  c #841538",
"l  c #931637",
"z  c #A0132E",
"x  c #BB1A2C",
"c  c #AF1A31",
"v  c #B41A34",
"b  c #B5203B",
"n  c #CE0000",
"m  c #C00000",
"M  c #D20000",
"N  c #EF0000",
"B  c #FF1C00",
"V  c #EF0017",
"C  c #FD191C",
"Z  c #FF291B",
"A  c #DC003C",
"S  c #EB0024",
"D  c #E6002C",
"F  c #F61627",
"G  c #E20033",
"H  c #E3003E",
"J  c #FB272C",
"K  c #FF2727",
"L  c #FB3B2E",
"P  c #F42534",
"I  c #FC3C3D",
"U  c #FB3D37",
"Y  c #FE4226",
"T  c #FE4130",
"R  c #872742",
"E  c #9F2C49",
"W  c #9C2D51",
"Q  c #A22E4C",
"!  c #A92E5F",
"~  c #A33451",
"^  c #B63B54",
"/  c #B7006E",
"(  c #BC0068",
")  c #AB007A",
"_  c #A7007D",
"`  c #B20073",
"'  c #862E74",
"]  c #93307B",
"[  c #A2317D",
"{  c #BC397E",
"}  c #D60045",
"|  c #D3004B",
" . c #CC0051",
".. c #C93C5A",
"X. c #DD3B5E",
"o. c #EE3D4E",
"O. c #F63D45",
"+. c #FA3E44",
"@. c #F23E4A",
"#. c #FD3E4A",
"$. c #E53C57",
"%. c #EA3D53",
"&. c #E23C5B",
"*. c #FF3E55",
"=. c #C20068",
"-. c #C71A67",
";. c #CE3A6D",
":. c #CD3569",
">. c #D63B65",
",. c #DA3B62",
"<. c #D23A69",
"1. c #C53975",
"2. c #C93A71",
"3. c #C13979",
"4. c #E33F60",
"5. c #DD445F",
"6. c #FD4445",
"7. c #F4424E",
"8. c #FA4349",
"9. c #EE4857",
"0. c #EF4059",
"q. c #EA495C",
"w. c #E4435E",
"e. c #F74558",
"r. c #C9436E",
"t. c #DE4866",
"y. c #D5476E",
"u. c #DB4768",
"i. c #D24467",
"p. c #CF4170",
"a. c #C64078",
"s. c #E34861",
"d. c #E84766",
"f. c #EB4E7F",
"g. c #FC4E79",
"h. c #F14969",
"j. c #7C009C",
"k. c #5C00BD",
"l. c #7B00A5",
"z. c #7200AB",
"x. c #6300B7",
"c. c #6C00B2",
"v. c #772FB9",
"b. c #7C31BA",
"n. c #7D3CBF",
"m. c #3F00D0",
"M. c #3B00E1",
"N. c #4A00CA",
"B. c #5400C3",
"V. c #4000D0",
"C. c #6C00D2",
"Z. c #652DC8",
"A. c #6E31C9",
"S. c #6C3ACF",
"D. c #7331C3",
"F. c #753BC6",
"G. c #6D3BD0",
"H. c #6A42DA",
"J. c #7844DD",
"K. c #97008F",
"L. c #9C0089",
"P. c #8A009A",
"I. c #900095",
"U. c #A20083",
"Y. c #8E3681",
"T. c #993988",
"R. c #9C359C",
"E. c #9B399F",
"W. c #97339E",
"Q. c #AC368D",
"!. c #AD3A8C",
"~. c #B33786",
"^. c #B83782",
"/. c #B43987",
"(. c #B93A83",
"). c #B43B8B",
"_. c #A43594",
"`. c #A53A96",
"'. c #AA3B91",
"]. c #A1399A",
"[. c #A83798",
"{. c #8530AB",
"}. c #8D33AA",
"|. c #8D3DAF",
" X c #8F33A7",
".X c #9434A3",
"XX c #963BA3",
"oX c #9E39AA",
"OX c #953BA6",
"+X c #8532B3",
"@X c #8032B8",
"#X c #873AB8",
"$X c #9D3EB8",
"%X c #A33EA4",
"&X c #F30285",
"*X c #FD2CA7",
"=X c #FF33AC",
"-X c #8E4399",
";X c #9340AB",
":X c #EA4A8E",
">X c #FF4E86",
",X c #FA5299",
"<X c #8A3BCA",
"1X c #9946C3",
"2X c #8E4BDB",
"3X c #9D928A",
"4X c #A2998E",
"5X c #A59399",
"6X c #A9999E",
"7X c #A39593",
"8X c #AA9CA4",
"9X c #AEA0A8",
"0X c #E6949F",
"qX c #EC949B",
"wX c #EE999F",
"eX c #F2979B",
"rX c #DD98A7",
"tX c #E399A6",
"yX c #EA99A2",
"uX c #E294A0",
"iX c #DEA3B2",
"pX c #DDBDBD",
"aX c #E6BDBD",
"sX c #F2BEBD",
"dX c #F9BDBB",
"fX c #F6C1BD",
"gX c #AD9BC8",
"hX c #BBACD9",
"jX c #BEB2DD",
"kX c #B3ACE5",
"lX c #BAB2E3",
"zX c #B7B3E9",
"xX c #DCBDCC",
"cX c #C2ADD1",
"vX c #C3B2D6",
"bX c #D3BDD3",
"nX c #E2BCC8",
"mX c #FFBFD9",
"MX c #DEC3C4",
"NX c #D6C1D6",
"BX c #DBC1D2",
"VX c #D4C1D9",
"CX c #E3C1CD",
"ZX c #E8C2C1",
"AX c #F6C2C2",
"SX c #FFD0CB",
"DX c #FDC9D4",
"FX c #FDD3D3",
"GX c #FBDDDD",
"HX c #D3CCF3",
"JX c #E4DBE9",
"KX c #FBE1E1",
"LX c #FFEBFB",
"PX c #FFFFFF",
"IX c #FDFAF7",
"UX c None",
/* pixels */
"UXUXUXUXUXUXUXUXUXUXUXUXUXUXUXUXUXUXUXUXUXUXUXUXUXUXUXUXUXUXUXUXUXUXUXUXUXUXUXUXUXUXUXUXUXUXUXUXUXUXUXUXUXUXUXUXUXUXUXUXUXUXUXUX",
"UXUXUXUXUXUXUXUXUXUXUXUXUXUXUXUXUXUXUXUXUXUXUXUXUXUXUXUXUXUXUXUXUXUXUXUXUXUXUXUXUXUXUXUXUXUXUXUXUXUXUXUXUXUXUXUXUXUXUXUXUXUXUXUX",
"UXUXUXUXUXUXUXUXUXUXUXUXPXPXPXPXPXPXPXPXPXPXPXPXPXPXPXPXPXPXPXPXPXPXPXPXPXPXPXPXPXPXPXPXPXPXPXPXPXPXPXPXUXUXUXUXUXUXUXUXUXUXUXUX",
"UXUXUXUXUXUXUXUXUXPXPXPXPXPXPXPXPXPXPXPXPXPXPXPXPXPXPXPXPXPXPXPXPXPXPXPXPXPXPXPXPXPXPXPXPXPXPXPXPXPXPXPXPXPXPXUXUXUXUXUXUXUXUXUX",
"UXUXUXUXUXUXUXUXPXPXPXPXPXPXPXPXPXPXPXPXPXPXPXPXPXPXPXPXPXPXPXPXPXPXPXPXPXPXPXPXPXPXPXPXPXPXPXPXPXPXPXPXPXPXPXPXUXUXUXUXUXUXUXUX",
"UXUXUXUXUXUXUXPXPXPXPXPXPXPXPXPXPXPXPXPXPXPXPXPXPXPXPXPXPXPXPXPXPXPXPXPXPXPXPXPXPXPXPXPXPXPXPXPXPXPXPXPXPXPXPXPXPXUXUXUXUXUXUXUX",
"UXUXUXUXUXUXPXPXPXPXPXPXPXPXPXPXPXPXPXPXPXPXPXPXPXPXPXPXPXPXPXPXPXPXPXPXPXPXPXPXPXPXPXPXPXPXPXPXPXPXPXPXPXPXPXPXPXPXUXUXUXUXUXUX",
"UXUXUXUXUXPXPXPXPXPXPXPXPXPXPXPXPXPXPXPXPXPXPXPXPXPXPXPXPXPXPXPXPXPXPXPXPXPXPXPXPXPXPXPXPXPXPXPXPXPXPXPXPXPXPXPXPXPXPXUXUXUXUXUX",
"UXUXUXUXPXPXPXPXPXPXPXPXPXPXPXPXPXPXPXPXPXPXPXPXPXPXPXPXPXPXPXPXPXPXPXPXPXPXPXPXPXPXPXPXPXPXPXPXPXPXPXPXPXPXPXPXPXPXPXPXUXUXUXUX",
"UXUXUXUXPXPXPXPXPXPXPXPXPXPXPXPXPXPXPXPXPXPXPXPXPXPXPXPXPXPXPXPXPXPXPXPXPXPXPXPXPXPXPXPXPXPXPXPXPXPXPXPXPXPXPXPXPXPXPXPXUXUXUXUX",
"UXUXUXPXPXPXPXPXPXPXPXPXPXPXPXPXPXPXPXPXHXIXPXPXPXPXPXPXPXPXPXPXPXPXPXPXPXPXPXPXPXPXIXHXPXPXPXPXPXPXPXPXPXPXPXPXPXPXPXPXPXUXUXUX",
"UXUXUXPXPXPXPXPXPXPXPXPXPXPXPXPXPXPXPXzXM.gXIXPXPXPXPXPXPXPXPXPXPXPXPXPXPXPXPXPXPXIXgXM.kXPXPXPXPXPXPXPXPXPXPXPXPXPXPXPXPXUXUXUX",
"UXUXUXPXPXPXPXPXPXPXPXPXPXPXPXPXPXPXzXm.H.C.5XPXPXPXPXPXPXPXPXPXPXPXPXPXPXPXPXPXPX6XC.H.m.kXPXPXPXPXPXPXPXPXPXPXPXPXPXPXPXUXUXUX",
"UXUXPXPXPXPXPXPXPXPXPXPXPXPXPXPXPXlXN.S.Z.J.z.3XPXPXPXPXPXPXPXPXPXPXPXPXPXPXPXPX4Xz.J.Z.S.N.kXPXPXPXPXPXPXPXPXPXPXPXPXPXPXPXUXUX",
"UXUXPXPXPXPXPXPXPXPXPXPXPXPXPXPXjXB.F.A.A.Z.2Xq 3XPXPXPXPXPXPXPXPXPXPXPXPXPXPX4X4 2XZ.A.A.F.B.hXPXPXPXPXPXPXPXPXPXPXPXPXPXPXUXUX",
"UXUXPXPXPXPXPXPXPXPXPXPXPXPXPXjXk.F.D.D.D.A.A.1X. 7XPXPXPXPXPXPXPXPXPXPXPXPX6X. 1XA.D.D.D.D.F.k.hXPXPXPXPXPXPXPXPXPXPXPXPXPXUXUX",
"UXUXPXPXPXPXPXPXPXPXPXPXPXPXjXx.F.n.b.b.v.b.v.<X-X  5XPXPXPXPXPXPXPXPXPXPX6X  E.<Xv.b.b.b.b.b.n.x.hXPXPXPXPXPXPXPXPXPXPXPXPXUXUX",
"UXUXPXPXPXPXPXPXPXPXPXPXPXvXc.#X@Xb.b.b.b.b.@Xv.1X7 X 5XPXPXPXPXPXPXPXPX6X. 7 1Xb.b.b.b.b.@Xb.@X#Xc.hXPXPXPXPXPXPXPXPXPXPXPXUXUX",
"UXUXPXPXPXPXPXPXPXPXPXPXvXz.#X+X+X+X+X+X+X+X+X+X#XXX= o 5XPXPXPXPXPXPX6Xo = XX#X+X+X+X+X@X+X+X+X+X#Xz.hXIXPXPXPXPXPXPXPXPXPXUXUX",
"UXUXPXPXPXPXPXPXPXPXPXvXl.|.}.{.}.}.}.+X}.+X}.}.{.$X' - + 5XIXPXPXPX6X+ - r $X{.{.}.}.+X}.}.+X}.}.}.|.l.hXPXPXPXPXPXPXPXPXPXUXUX",
"UXUXPXPXPXPXPXPXPXPXJXj.|. X X X X}.}.}. X X X X X XoX3 6 + 5XPXPX6X+ 5 % %X X X X X X}. X X X X X X X;Xj.JXPXPXPXPXPXPXPXPXUXUX",
"UXUXPXPXPXPXPXPXPXPXPXVXP.XX.X.XW..X.X.X.X.X.X.X.X.XoXY.@ 6 O 8X9XO 6 @ Y.oX X.X.X.X.X.X.X.X.X.X.XXXXXP.bXPXPXPXPXPXPXPXPXPXUXUX",
"UXUXPXPXPXPXPXPXPXPXPXPXNXI.E.E.R.W.R.E.R.R.E.W.W.R..X%X6 < 6 ; ; e < 5 %XR.R.R.R.W.E.E.R.R.R.R.W.E.I.bXPXPXPXPXPXPXPXPXPXPXUXUX",
"UXUXPXPXPXPXPXPXPXPXPXPXPXNXK.].].R._.R.R.R.R.R.R._.R.%XT.: q w w 9 : T.].R.R.R.R._.R.R.R.R.R.E.E.K.BXPXPXPXPXPXPXPXPXPXPXPXUXUX",
"UXUXPXPXPXPXPXPXPXPXPXPXPXPXNXL.[.[._._._._._._._._._._.[.' 1 9 9 1 r [._._._._._._._._._._.`.`.L.bXPXPXPXPXPXPXPXPXPXPXPXPXUXUX",
"UXUXPXPXPXPXPXPXPXPXPXPXPXPXPXBXU.'.'.'._.Q.Q.Q.Q._._.Q.Q.Q.0 9 9 0 Q.Q.'.Q._.'.Q.Q.Q._.Q.'.'.U.xXPXPXPXPXPXPXPXPXPXPXPXPXPXUXUX",
"UXUXPXPXPXPXPXPXPXPXPXPXPXPXPXPXBX_ !.).!.~.Q.Q.Q.Q.Q.!.Q.).] 8 8 ] ).Q.).Q.Q.Q.!.Q.!.!.!.!._ xXPXPXPXPXPXPXPXPXPXPXPXPXPXPXUXUX",
"UXUXPXPXPXPXPXPXPXPXPXPXPXPXPXPXPXBX) /.~.~.~.~.~.~.~.^.~.~./.w 0 /.~.).~.~.~.^.~.~.~.).(.) xXPXPXPXPXPXPXPXPXPXPXPXPXPXPXPXUXUX",
"UXUXPXPXPXPXPXPXPXPXPXPXPXPXPXPXPXPXCX` (.(.(.(.^.^.^.^.^.^.^.[ [ ^.^.^.^.^.^.^.{ ~.{ (.` xXPXPXPXPXPXPXPXPXPXPXPXPXPXPXPXPXUXUX",
"UXUXPXPXPXPXPXPXPXPXPXPXPXPXPXPXPXPXPXCX/ (.{ { { { { { { { { { 3.{ { { { { { { { { { / nXPXPXPXPXPXPXPXPXPXPXPXPXPXPXPXPXPXUXUX",
"UXUXPXPXPXPXPXPXPXPXPXPXPXPXPXPXPXPXPXPXCX( 3.3.3.3.3.3.3.3.3.3.3.3.3.3.3.3.3.3.1.{ ( nXPXPXPXPXPXPXPXPXPXPXPXPXPXPXPXPXPXPXUXUX",
"UXUXPXPXPXPXPXPXPXPXPXPXPXPXPXPXPXPXPXIXPXCX=.a.1.1.1.1.1.1.1.1.1.1.1.1.1.1.1.1.a.( nXPXPXPXPXPXPXPXPXPXPXPXPXPXPXPXPXPXPXPXUXUX",
"UXUXPXPXPXPXPXPXPXPXPXPXPXPXPXPXPXPXPXPXPXiX-.2.2.2.2.2.2.2.2.2.1.2.2.2.2.2.2.2.2.-.iXIXPXPXPXPXPXPXPXPXPXPXPXPXPXPXPXPXPXPXUXUX",
"UXUXPXPXPXPXPXPXPXPXPXPXPXPXPXPXPXPXPXPXrX .p.;.;.;.;.;.;.;.;.;.;.:.;.<.;.;.;.;.;.p. .rXPXPXPXPXPXPXPXPXPXPXPXPXPXPXPXPXPXPXUXUX",
"UXUXPXPXPXPXPXPXPXPXPXPXPXPXPXPXPXPXPXtX .y.:.<.<.<.<.<.<.<.<.<.<.<.<.<.<.<.<.<.<.<.y. .uXPXPXPXPXPXPXPXPXPXPXPXPXPXPXPXPXPXUXUX",
"UXUXPXPXPXPXPXPXPXPXPXPXPXPXPXPXPXPXtX| y.>.>.>.>.>.>.>.>.>.4.! ! ,.<.<.<.<.,.<.>.>.>.y.| uXPXPXPXPXPXPXPXPXPXPXPXPXPXPXPXPXUXUX",
"UXUXPXPXPXPXPXPXPXPXPXPXPXPXPXPXPXtX} u.,.,.,.,.,.,.,.,.,.,.>.3 > >.,.,.X.,.,.,.,.,.,.,.u.} uXPXPXPXPXPXPXPXPXPXPXPXPXPXPXPXUXUX",
"UXUXPXPXPXPXPXPXPXPXPXPXPXPXPXPXyXA t.X.X.X.X.X.4.,.X.X.&.4.W ; ; W 4.X.X.X.X.X.X.,.X.X.,.t.A qXIXPXIXPXPXPXPXPXPXPXPXPXPXPXUXUX",
"UXUXPXPXPXPXPXPXPXPXPXPXPXPXIXyXA s.&.&.&.&.&.&.&.&.&.&.$...% 2 & % ..&.&.&.&.&.&.&.&.&.&.&.s.A 0XPXPXPXPXPXPXPXPXPXPXPXPXPXUXUX",
"UXUXPXPXPXPXPXPXPXPXPXPXPXPXyXG q.$.$.$.$.$.&.$.$.$.$.$.4.R & k k j R 4.$.$.$.$.$.$.$.$.$.$.$.s.G qXPXPXPXPXPXPXPXPXPXPXPXPXUXUX",
"UXUXPXPXPXPXPXPXPXPXPXPXPXwXD q.$.$.%.%.%.%.%.$.%.%.$.%.^ $ l l l l $ ^ 0.%.$.%.%.%.%.$.%.%.%.%.q.D qXPXPXPXPXPXPXPXPXPXPXPXUXUX",
"UXUXPXPXPXPXPXPXPXPXPXPXeXS q.%.o.%.%.%.%.%.%.%.%.%.o.5.k z f t t f z * 5.o.%.%.%.%.%.%.%.%.%.%.%.9.S eXPXPXPXPXPXPXPXPXPXPXUXUX",
"UXUXPXPXPXPXPXPXPXPXIXeXS q.o.o.o.o.o.o.o.o.o.o.o.o.9.~ y c u MXMXu c y E 9.o.o.o.o.o.o.o.o.o.o.%.o.9.S eXIXPXPXPXPXPXPXPXPXUXUX",
"UXUXPXPXPXPXPXPXPXPXKXV 7.7.@.o.o.@.o.@.7.@.o.@.@.7.y.g x i pXPXPXnXp x g i.7.o.o.@.o.@.@.@.o.o.@.@.o.7.N GXPXIXPXPXPXPXPXPXUXUX",
"UXUXPXPXPXPXPXPXPXPXPXFXP O.7.O.@.@.@.O.@.@.@.8.I h.Q d m pXPXPXPXPXpXm s E h.I 8.@.@.O.@.8.@.@.@.7.@.F FXPXPXPXPXPXPXPXPXPXUXUX",
"UXUXPXPXPXPXPXPXPXPXPXPXFXP O.7.O.@.8.O.O.O.@.O.e.i.i n aXPXPXPXPXPXPXZXn i r.e.I @.O.O.O.@.#.O.8.O.F DXPXPXPXPXPXPXPXPXPXPXUXUX",
"UXUXPXPXPXPXPXPXPXPXPXPXPXFXJ O.8.O.+.O.O.+.O.I :Xb M aXPXPXPXPXPXPXPXPXZXM v :X+.O.O.O.O.+.O.8.O.F FXPXPXPXPXPXPXPXPXPXPXPXUXUX",
"UXUXPXPXPXPXPXPXPXPXPXPXPXPXFXJ +.6.+.+.6.O.L g.;.n sXPXPXPXPXPXPXPXPXPXPXAXM :.g.L 8.+.+.+.6.+.F FXPXPXPXPXPXPXPXPXPXPXPXPXUXUX",
"UXUXPXPXPXPXPXPXPXPXPXPXPXPXPXFXJ +.6.+.+.U e.:XM sXPXPXPXPXPXPXPXPXPXPXPXPXAXM :Xe.U +.+.6.O.C SXPXPXPXPXPXPXPXPXPXPXPXPXPXUXUX",
"UXUXPXPXPXPXPXPXPXPXPXPXPXPXPXPXFXK I 6.+.Y ,XH dXPXPXPXPXPXPXPXPXPXPXPXPXPXPXsXG ,XT +.6.+.C SXPXIXPXPXPXPXPXPXPXPXPXPXPXPXUXUX",
"UXUXPXPXPXPXPXPXPXPXPXPXPXPXPXPXPXFXK +.Y >X&XdXPXPXPXPXPXPXPXPXPXPXPXPXPXPXPXPXfX&X>XY +.C FXPXPXPXPXPXPXPXPXPXPXPXPXPXPXPXUXUX",
"UXUXUXPXPXPXPXPXPXPXPXPXPXPXPXPXPXPXFXZ #.*XdXPXPXPXPXPXPXPXPXPXPXPXPXPXPXPXPXPXPXAX*X*.B SXPXIXPXPXPXPXPXPXPXPXPXPXPXPXPXUXUXUX",
"UXUXUXPXPXPXPXPXPXPXPXPXPXPXPXPXPXPXPXSX=XmXPXPXPXPXPXPXPXPXPXPXPXPXPXPXPXPXPXPXPXPXDX=XSXPXPXPXPXPXPXPXPXPXPXPXPXPXPXPXPXUXUXUX",
"UXUXUXPXPXPXPXPXPXPXPXPXPXPXPXPXPXPXPXPXLXPXPXPXPXPXPXPXPXPXPXPXPXPXPXPXPXPXPXPXPXPXPXLXPXPXPXPXPXPXPXPXPXPXPXPXPXPXPXPXPXUXUXUX",
"UXUXUXUXPXPXPXPXPXPXPXPXPXPXPXPXPXPXPXPXPXPXPXPXPXPXPXPXPXPXPXPXPXPXPXPXPXPXPXPXPXPXPXPXPXPXPXPXPXPXPXPXPXPXPXPXPXPXPXPXUXUXUXUX",
"UXUXUXUXPXPXPXPXPXPXPXPXPXPXPXPXPXPXPXPXPXPXPXPXPXPXPXPXPXPXPXPXPXPXPXPXPXPXPXPXPXPXPXPXPXPXPXPXPXPXPXPXPXPXPXPXPXPXPXPXUXUXUXUX",
"UXUXUXUXUXPXPXPXPXPXPXPXPXPXPXPXPXPXPXPXPXPXPXPXPXPXPXPXPXPXPXPXPXPXPXPXPXPXPXPXPXPXPXPXPXPXPXPXPXPXPXPXPXPXPXPXPXPXPXUXUXUXUXUX",
"UXUXUXUXUXUXPXPXPXPXPXPXPXPXPXPXPXPXPXPXPXPXPXPXPXPXPXPXPXPXPXPXPXPXPXPXPXPXPXPXPXPXPXPXPXPXPXPXPXPXPXPXPXPXPXPXPXPXUXUXUXUXUXUX",
"UXUXUXUXUXUXUXPXPXPXPXPXPXPXPXPXPXPXPXPXPXPXPXPXPXPXPXPXPXPXPXPXPXPXPXPXPXPXPXPXPXPXPXPXPXPXPXPXPXPXPXPXPXPXPXPXPXUXUXUXUXUXUXUX",
"UXUXUXUXUXUXUXUXPXPXPXPXPXPXPXPXPXPXPXPXPXPXPXPXPXPXPXPXPXPXPXPXPXPXPXPXPXPXPXPXPXPXPXPXPXPXPXPXPXPXPXPXPXPXPXPXUXUXUXUXUXUXUXUX",
"UXUXUXUXUXUXUXUXUXUXPXPXPXPXPXPXPXPXPXPXPXPXPXPXPXPXPXPXPXPXPXPXPXPXPXPXPXPXPXPXPXPXPXPXPXPXPXPXPXPXPXPXPXPXUXUXUXUXUXUXUXUXUXUX",
"UXUXUXUXUXUXUXUXUXUXUXUXUXUXPXPXPXPXPXPXPXPXPXPXPXPXPXPXPXPXPXPXPXPXPXPXPXPXPXPXPXPXPXPXPXPXPXPXPXPXUXUXUXUXUXUXUXUXUXUXUXUXUXUX",
"UXUXUXUXUXUXUXUXUXUXUXUXUXUXUXUXUXUXUXUXUXUXUXUXUXUXUXUXUXUXUXUXUXUXUXUXUXUXUXUXUXUXUXUXUXUXUXUXUXUXUXUXUXUXUXUXUXUXUXUXUXUXUXUX",
"UXUXUXUXUXUXUXUXUXUXUXUXUXUXUXUXUXUXUXUXUXUXUXUXUXUXUXUXUXUXUXUXUXUXUXUXUXUXUXUXUXUXUXUXUXUXUXUXUXUXUXUXUXUXUXUXUXUXUXUXUXUXUXUX"
};
