/* XPM */
static char *result[] = {
/* columns rows colors chars-per-pixel */
"64 64 245 2 ",
"   c #A20000",
".  c #A30000",
"X  c #A40000",
"o  c #A50000",
"O  c #A60000",
"+  c #A80000",
"@  c #AA0000",
"#  c #AB0000",
"$  c #AB0101",
"%  c #AC0000",
"&  c #AC0101",
"*  c #AF0000",
"=  c #B00000",
"-  c #B10000",
";  c #B20000",
":  c #B30000",
">  c #B40000",
",  c #B50000",
"<  c #B60000",
"1  c #B70000",
"2  c #B80000",
"3  c #B90000",
"4  c #BC0000",
"5  c #BD0000",
"6  c #BF0000",
"7  c #BE0101",
"8  c #B70808",
"9  c #BF0808",
"0  c #BA1010",
"q  c #C00000",
"w  c #C10000",
"e  c #C20000",
"r  c #C30000",
"t  c #C40000",
"y  c #C50000",
"u  c #C50101",
"i  c #C60000",
"p  c #C70000",
"a  c #C80000",
"s  c #C90000",
"d  c #CA0000",
"f  c #CB0000",
"g  c #CC0000",
"h  c #CD0000",
"j  c #CF0000",
"k  c #C30808",
"l  c #D00000",
"z  c #D10000",
"x  c #D10101",
"c  c #D20000",
"v  c #D30000",
"b  c #D40000",
"n  c #D50000",
"m  c #D60000",
"M  c #D70000",
"N  c #D80000",
"B  c #D90000",
"V  c #DA0000",
"C  c #DB0000",
"Z  c #DC0000",
"A  c #DD0000",
"S  c #DD0101",
"D  c #DE0000",
"F  c #DF0000",
"G  c #D90707",
"H  c #D60808",
"J  c #C41010",
"K  c #C51010",
"L  c #CF1313",
"P  c #D21212",
"I  c #D61111",
"U  c #DD1313",
"Y  c #E00000",
"T  c #E10000",
"R  c #E20000",
"E  c #E30000",
"W  c #E40000",
"Q  c #E50000",
"!  c #E60000",
"~  c #E70000",
"^  c #E60101",
"/  c #E80000",
"(  c #E90000",
")  c #EA0000",
"_  c #EB0000",
"`  c #EC0000",
"'  c #ED0000",
"]  c #EE0000",
"[  c #EF0000",
"{  c #E40909",
"}  c #F00000",
"|  c #F10000",
" . c #F20000",
".. c #F30000",
"X. c #F30101",
"o. c #F40000",
"O. c #F50000",
"+. c #F60000",
"@. c #F70000",
"#. c #F50202",
"$. c #F40707",
"%. c #F80000",
"&. c #F90000",
"*. c #FA0000",
"=. c #FB0000",
"-. c #FC0000",
";. c #FD0000",
":. c #FD0101",
">. c #FE0000",
",. c red",
"<. c #FE0101",
"1. c #FF0101",
"2. c #FD0202",
"3. c #FF0202",
"4. c #FF0303",
"5. c #FD0505",
"6. c #FF0404",
"7. c #FF0606",
"8. c #FF0707",
"9. c #F50B0B",
"0. c #FF0808",
"q. c #FD0B0B",
"w. c #FF0B0B",
"e. c #FF0C0C",
"r. c #FE0D0D",
"t. c #FF0E0E",
"y. c #E01010",
"u. c #E11313",
"i. c #E51616",
"p. c #E61717",
"a. c #EA1414",
"s. c #EB1E1E",
"d. c #F31313",
"f. c #F81010",
"g. c #FF1010",
"h. c #FF1111",
"j. c #FE1313",
"k. c #FF1313",
"l. c #FF1616",
"z. c #F21C1C",
"x. c #F41C1C",
"c. c #F81818",
"v. c #FE1818",
"b. c #FF1818",
"n. c #FF1919",
"m. c #FF1A1A",
"M. c #F81F1F",
"N. c #FC1C1C",
"B. c #FC1D1D",
"V. c #FE1C1C",
"C. c #FF1C1C",
"Z. c #FF1D1D",
"A. c #FE1E1E",
"S. c #FF1E1E",
"D. c #FE1F1F",
"F. c #FF1F1F",
"G. c #C92121",
"H. c #CE2121",
"J. c #C52929",
"K. c #C92929",
"L. c #CB2929",
"P. c #D72121",
"I. c #D42727",
"U. c #D72727",
"Y. c #D82929",
"T. c #DF2929",
"R. c #DF2B2B",
"E. c #EE2121",
"W. c #F12525",
"Q. c #FF2020",
"!. c #FE2121",
"~. c #FF2121",
"^. c #FF2222",
"/. c #FC2626",
"(. c #FF2626",
"). c #FF2727",
"_. c #F12929",
"`. c #F52929",
"'. c #FF2828",
"]. c #FE2929",
"[. c #FF2929",
"{. c #FF2F2F",
"}. c #FF3434",
"|. c #F17B7B",
" X c #FA7B7B",
".X c #FF7A7A",
"XX c #FE7B7B",
"oX c #FF7B7B",
"OX c #FF7E7E",
"+X c #FF8989",
"@X c #FF8A8A",
"#X c #F69191",
"$X c #FF9191",
"%X c #FC9393",
"&X c #FE9393",
"*X c #FF9393",
"=X c #FF9595",
"-X c #FF9999",
";X c #FF9E9E",
":X c #F5AAAA",
">X c #FAA8A8",
",X c #FEA8A8",
"<X c #FFA8A8",
"1X c #FFAAAA",
"2X c #FFB3B3",
"3X c #FAB7B7",
"4X c #FFB4B4",
"5X c #FFB5B5",
"6X c #FEB6B6",
"7X c #FFB6B6",
"8X c #F7BCBC",
"9X c #FBBCBC",
"0X c #FEBCBC",
"qX c #FFBCBC",
"wX c #FFBEBE",
"eX c #FFC6C6",
"rX c #FEC7C7",
"tX c #FFC7C7",
"yX c #FCC8C8",
"uX c #FFC8C8",
"iX c #FFCBCB",
"pX c #FAD6D6",
"aX c #FDD6D6",
"sX c #FED6D6",
"dX c #FFD6D6",
"fX c #FBD8D8",
"gX c #FADDDD",
"hX c #FCE5E5",
"jX c #FEE5E5",
"kX c #FFE5E5",
"lX c #FDE6E6",
"zX c #FDEAEA",
"xX c #FFEFEF",
"cX c #FFF1F1",
"vX c #FEF4F4",
"bX c #FFF5F5",
"nX c snow",
"mX c #FFFBFB",
"MX c #FEFCFC",
"NX c #FFFCFC",
"BX c #FFFDFD",
"VX c #FFFEFE",
"CX c #FEFFFF",
"ZX c white",
"AX c None",
/* pixels */
"AXAXAXAXAXAXAXAXAXAXAXAXAXAXAXAXAXAXAXAXAXAXAXAXAXAXZXZXZXZXZXZXZXZXZXZXZXZXAXAXAXAXAXAXAXAXAXAXAXAXAXAXAXAXAXAXAXAXAXAXAXAXAXAX",
"AXAXAXAXAXAXAXAXAXAXAXAXAXAXAXAXAXAXAXAXAXAXZXZXZXZXZXZXZXZXZXZXZXZXZXZXZXZXZXZXZXZXAXAXAXAXAXAXAXAXAXAXAXAXAXAXAXAXAXAXAXAXAXAX",
"AXAXAXAXAXAXAXAXAXAXAXAXAXAXAXAXAXAXAXAXZXZXZXZXZXZXZXZXZXZXZXZXZXZXZXZXZXZXZXZXZXZXZXZXAXAXAXAXAXAXAXAXAXAXAXAXAXAXAXAXAXAXAXAX",
"AXAXAXAXAXAXAXAXAXAXAXAXAXAXAXAXAXAXZXZXZXZXZXZXZXZXZXZXZXZXZXZXZXZXZXZXZXZXZXZXZXZXZXZXZXZXZXAXAXAXAXAXAXAXAXAXAXAXAXAXAXAXAXAX",
"AXAXAXAXAXAXAXAXAXAXAXAXAXAXAXAXZXZXZXZXZXZXZXZXZXZXZXZXZXZXZXZXZXZXZXZXZXZXZXZXZXZXZXZXZXZXZXZXAXAXAXAXAXAXAXAXAXAXAXAXAXAXAXAX",
"AXAXAXAXAXAXAXAXAXAXAXAXAXAXZXZXZXZXZXZXZXZXZXZXZXZXZXZXZXZXZXZXZXZXZXZXZXZXZXZXZXZXZXZXZXZXZXZXZXZXAXAXAXAXAXAXAXAXAXAXAXAXAXAX",
"AXAXAXAXAXAXAXAXAXAXAXAXAXZXZXZXZXZXZXZXZXZXZXZXZXZXZXZXZXZXZXZXZXZXZXZXZXZXZXZXZXZXZXZXZXZXZXZXZXZXZXAXAXAXAXAXAXAXAXAXAXAXAXAX",
"AXAXAXAXAXAXAXAXAXAXAXZXZXZXZXZXZXZXZXZXZXZXZXZXZXZXZXZXZXZXZXZXZXZXZXZXZXZXZXZXZXZXZXZXZXZXZXZXZXZXZXZXZXAXAXAXAXAXAXAXAXAXAXAX",
"AXAXAXAXAXAXAXAXAXAXZXZXZXZXZXZXZXZXZXZXVXZXZXZXZXZXZXZXZXZXZXZXZXZXZXZXZXZXZXZXZXZXZXVXZXZXZXZXZXZXZXZXZXZXAXAXAXAXAXAXAXAXAXAX",
"AXAXAXAXAXAXAXAXAXZXZXZXZXZXZXZXZXZXZXBXZXZXVXZXZXZXZXZXZXZXZXZXZXZXZXZXZXZXZXZXZXZXVXZXVXZXZXZXZXZXZXZXZXZXZXAXAXAXAXAXAXAXAXAX",
"AXAXAXAXAXAXAXAXZXZXZXZXZXZXZXZXZXZXBXZXzXnXZXVXZXZXZXZXZXZXZXZXZXZXZXZXZXZXZXZXZXVXZXhXZXZXZXZXZXZXZXZXZXZXZXZXAXAXAXAXAXAXAXAX",
"AXAXAXAXAXAXAXZXZXZXZXZXZXZXZXZXZXNXZXlX_ #XZXCXVXZXZXZXZXZXZXZXZXZXZXZXZXZXZXZXBXZXyX/ 8XZXBXZXZXZXZXZXZXZXZXZXZXAXAXAXAXAXAXAX",
"AXAXAXAXAXAXAXZXZXZXZXZXZXZXZXZXNXZXjXx./ Y %XZXZXVXZXZXZXZXZXZXZXZXZXZXZXZXZXBXCXtX~ u.} 9XZXBXZXZXZXZXZXZXZXZXZXAXAXAXAXAXAXAX",
"AXAXAXAXAXAXZXZXZXZXZXZXZXZXZXNXZXkXN.O.s.U.E *XCXZXVXZXZXZXZXZXZXZXZXZXZXZXBXCXtX| P p.z.*.0XZXBXZXZXZXZXZXZXZXZXZXAXAXAXAXAXAX",
"AXAXAXAXAXZXZXZXZXZXZXZXZXZXNXZXkXV.;.M.] F K. .*XCXZXVXZXZXZXZXZXZXZXZXZXBXZXtX;.L I ) 9.B.>.qXZXBXZXZXZXZXZXZXZXZXZXAXAXAXAXAX",
"AXAXAXAXAXZXZXZXZXZXZXZXZXNXZXkXC.,.D.=.X.! j L.,.*XZXZXVXZXZXZXZXZXZXZXBXZXrX,.U J T } &.q.Z.,.qXZXBXZXZXZXZXZXZXZXZXZXAXAXAXAX",
"AXAXAXAXZXZXZXZXZXZXZXZXNXZXkXC.,.F.>.:.%.' A 4 T.,.&XZXZXVXZXZXZXZXZXBXZXrX,.d.0 b / O.-.>.w.Z.,.qXZXBXZXZXZXZXZXZXZXZXAXAXAXAX",
"AXAXAXAXZXZXZXZXZXZXZXNXZXkXC.,.F.,.1.>.=.o.! j < `.,.&XZXZXVXZXZXZXBXZXtX>.k.K e Y } *.;.,.,.w.Z.,.qXZXBXZXZXZXZXZXZXZXZXAXAXAX",
"AXAXAXZXZXZXZXZXZXZXBXZXkXC.,.F.,.1.,.,.;.&.[ D 4 p [.>.*XZXZXVXZXBXZXtX>.k.y.= m ) @.-.>.,.,.,.w.Z.,.qXZXVXZXZXZXZXZXZXZXAXAXAX",
"AXAXAXZXZXZXZXZXZXVXZXkXF.,.F.,.1.,.,.,.>.-.+.( b % W [.>.*XZXZXNXZXtX>.k.f.= p E ..=.>.,.,.,.,.,.w.S.,.wXZXVXZXZXZXZXZXZXZXAXAX",
"AXAXZXZXZXZXZXZXVXZXcX,.,.^.,.1.,.,.,.,.,.;.*. .T r - =.[.,.*XZXZXeX,.j.g.s : C ' %.;.,.,.,.,.,.,.,.6.{.,.iXZXBXZXZXZXZXZXZXAXAX",
"AXAXZXZXZXZXZXZXZXZXZX2X,.F.0.,.,.,.,.,.,.,.;.%.` B * h ,.].,.;XtX,.r.g./ O j ~ O.-.>.,.,.,.,.,.1.,.'.,.OXbXZXVXZXZXZXZXZXZXAXAX",
"AXZXZXZXZXZXZXZXZXVXZXZX4X,.~.8.,.,.,.,.,.,.>.=.o.Q g X ` ,.V.,.,.e.e.>.; 5 F } *.;.,.,.,.,.,.1.,.[.,.oXNXZXVXZXZXZXZXZXZXZXZXAX",
"AXZXZXZXZXZXZXZXZXZXVXVXZX5X,.~.8.,.,.,.,.,.,.;.*.} D 3 , ,.,.b.C.5.,.c + m _ @.-.>.,.,.,.,.1.,.[.,.oXNXZXBXZXZXZXZXZXZXZXZXZXAX",
"AXZXZXZXZXZXZXZXZXZXZXVXVXZX5X,.~.8.,.,.,.,.,.>.-.@.( b o N ,.;.<.,.| . a W o.=.>.,.,.,.,.1.,.[.,.oXNXZXBXZXZXZXZXZXZXZXZXZXZXAX",
"AXZXZXZXZXZXZXZXZXZXZXZXVXVXZX5X,.~.8.,.,.,.,.,.>.=...R y O O.,.>.,.4 > Z ] &.;.,.,.,.,.1.,.[.,.oXNXZXBXZXZXZXZXZXZXZXZXZXZXZXAX",
"ZXZXZXZXZXZXZXZXZXZXZXZXZXVXVXZX5X,.~.8.,.,.,.,.,.;.&.] C > y ,.,.Y + c / +.-.>.,.,.,.1.,.[.,.oXNXZXBXZXZXZXZXZXZXZXZXZXZXZXZXZX",
"ZXZXZXZXZXZXZXZXZXZXZXZXZXZXVXVXZX5X,.~.8.,.,.,.,.>.-.+./ b : _ >.3 s R  .*.>.,.,.,.1.,.[.,.oXNXZXBXZXZXZXZXZXZXZXZXZXZXZXZXZXZX",
"ZXZXZXZXZXZXZXZXZXZXZXZXZXZXZXVXVXZX5X,.~.8.,.,.,.,.;.*. .! c b D f T [ %.;.,.,.,.1.,.[.,.oXNXZXBXZXZXZXZXZXZXZXZXZXZXZXZXZXZXZX",
"ZXZXZXZXZXZXZXZXZXZXZXZXZXZXZXZXVXVXZX5X,.~.7.,.,.,.,.;.&. .) T D ~ [ @.-.>.,.,.1.,.'.,.oXNXZXBXZXZXZXZXZXZXZXZXZXZXZXZXZXZXZXZX",
"ZXZXZXZXZXZXZXZXZXZXZXZXZXZXZXZXZXVXVXZX4X,.g.6.,.,.,.>.-.*.+.....O.&.-.>.,.,.,.,.Q.,..XNXZXBXZXZXZXZXZXZXZXZXZXZXZXZXZXZXZXZXZX",
"ZXZXZXZXZXZXZXZXZXZXZXZXZXZXZXZXZXZXVXVXZXqX,.l.3.,.,.,.>.;.=.*.*.=.-.>.,.,.,.,.n.,.+XBXZXBXZXZXZXZXZXZXZXZXZXZXZXZXZXZXZXZXZXZX",
"ZXZXZXZXZXZXZXZXZXZXZXZXZXZXZXZXZXZXZXNXZXiX,.l.3.,.,.,.>.;.=.*.*.=.-.>.,.,.,.,.C.,.-XZXZXVXZXZXZXZXZXZXZXZXZXZXZXZXZXZXZXZXZXZX",
"ZXZXZXZXZXZXZXZXZXZXZXZXZXZXZXZXZXZXBXZXtX,.1.0.,.,.,.>.;.*.+.o...O.&.-.>.,.,.,.,.Q.,.$XZXZXVXZXZXZXZXZXZXZXZXZXZXZXZXZXZXZXZXZX",
"ZXZXZXZXZXZXZXZXZXZXZXZXZXZXZXZXZXBXZXtX,.h.t.,.,.,.>.;.&...) E Y / } %.-.>.,.,.1.,.).,.*XZXZXVXZXZXZXZXZXZXZXZXZXZXZXZXZXZXZXZX",
"ZXZXZXZXZXZXZXZXZXZXZXZXZXZXZXZXBXZXtX,.k.g.,.,.,.,.>.=...~ n v V j R } &.;.,.,.,.,.,.[.,.*XZXZXVXZXZXZXZXZXZXZXZXZXZXZXZXZXZXZX",
"ZXZXZXZXZXZXZXZXZXZXZXZXZXZXZXBXZXtX,.k.g.,.,.,.,.>.-.+.( m , ! =.1 g W ..=.>.,.,.,.,.,.[.,.*XZXZXVXZXZXZXZXZXZXZXZXZXZXZXZXZXZX",
"ZXZXZXZXZXZXZXZXZXZXZXZXZXZXBXZXtX,.k.g.,.,.,.,.,.;.&.[ A 2 6 ,.,.V @ n ) @.-.>.,.,.,.,.,.[.,.*XZXZXVXZXZXZXZXZXZXZXZXZXZXZXZXZX",
"AXZXZXZXZXZXZXZXZXZXZXZXZXBXZXtX,.k.g.,.,.,.,.,.>.=.o.W s X } ,.>.,., 3 A } &.;.,.,.,.,.,.,.[.,.*XZXZXVXZXZXZXZXZXZXZXZXZXZXZXAX",
"AXZXZXZXZXZXZXZXZXZXZXZXBXZXtX,.k.g.,.,.,.,.,.>.;.@._ M + l ,.;.>.,.`   g Q o.=.>.,.,.,.,.,.,.[.,.*XZXZXVXZXZXZXZXZXZXZXZXZXZXAX",
"AXZXZXZXZXZXZXZXZXZXZXBXZXtX,.k.g.,.,.,.,.,.,.;.*.| F 5 * :.,.b.S.>.,.f # N ` %.;.>.,.,.,.,.,.,.[.,.*XZXZXVXZXZXZXZXZXZXZXZXZXAX",
"AXZXZXZXZXZXZXZXZXZXVXZXtX,.k.g.,.,.,.,.,.,.>.-.O.! j X ^ ,.D.,.,.m.4.=.% w Y  .*.>.,.,.,.,.,.,.,.[.,.*XZXZXVXZXZXZXZXZXZXZXZXAX",
"AXAXZXZXZXZXZXZXZXVXZXtX,.g.h.,.,.,.,.,.,.,.;.%.' V - u ,.].,.@X4X,.A.8.R o z / +.-.>.,.,.,.,.,.,.,.[.,.=XNXZXZXZXZXZXZXZXZXAXAX",
"AXAXZXZXZXZXZXZXVXZXxX,.,.Q.,.1.,.,.,.,.,.>.=...R i & @.[.>.oXmXZX2X,.!.8.w , Z ] &.;.,.,.,.,.,.,.,.,.}.,.uXZXBXZXZXZXZXZXZXAXAX",
"AXAXAXZXZXZXZXZXZXVXZXdX,.,.b.,.,.,.,.,.>.-.@.) n $ A [.;.oXNXZXBXZX5X>.~.$.% d W ..=.>.,.,.,.,.,.3.(.,.1XZXVXZXZXZXZXZXZXZXAXAX",
"AXAXAXZXZXZXZXZXZXZXVXZXdX,.,.b.,.,.,.,.;.*.} F 7 q [.,.oXNXZXBXZXVXZX5X>.~.G = N _ @.-.>.,.,.,.3.(.,.<XZXZXVXZXZXZXZXZXZXAXAXAX",
"AXAXAXZXZXZXZXZXZXZXZXBXZXdX,.,.b.,.,.>.=.O.~ x ; _.,.XXNXZXBXZXZXVXVXZX5X,.~.9 t T | *.;.,.,.3.(.,.<XZXZXVXZXZXZXZXZXZXZXAXAXAX",
"AXAXAXAXZXZXZXZXZXZXZXZXBXZXdX,.,.b.,.;.%.] S 4 Y.,.XXNXZXBXZXZXZXZXVXVXZX6X,.E.8 n ( +.-.>.3.(.,.<XZXZXVXZXZXZXZXZXZXZXAXAXAXAX",
"AXAXAXAXAXZXZXZXZXZXZXZXZXBXZXdX,.,.v.=.o.^ j J.;.oXNXZXBXZXZXZXZXZXZXVXVXZX6X,.P.k T } &.2.(.,.<XZXZXVXZXZXZXZXZXZXZXZXAXAXAXAX",
"AXAXAXAXAXZXZXZXZXZXZXZXZXZXBXZXdX>.;.c.] D J.' oXMXZXBXZXZXZXZXZXZXZXZXVXVXZX7X=.G.H ) #./.>.<XZXZXVXZXZXZXZXZXZXZXZXAXAXAXAXAX",
"AXAXAXAXAXAXZXZXZXZXZXZXZXZXZXBXZXsX=.O.a.I.Z oXMXZXBXZXZXZXZXZXZXZXZXZXZXVXVXCX7X` H.{ W.&.,XZXZXVXZXZXZXZXZXZXZXZXAXAXAXAXAXAX",
"AXAXAXAXAXAXAXZXZXZXZXZXZXZXZXZXBXZXaX .i.B  XNXZXBXZXZXZXZXZXZXZXZXZXZXZXZXVXVXZX7XT R.[ >XZXZXVXZXZXZXZXZXZXZXZXZXAXAXAXAXAXAX",
"AXAXAXAXAXAXAXZXZXZXZXZXZXZXZXZXZXBXZXfXQ |.NXCXBXZXZXZXZXZXZXZXZXZXZXZXZXZXZXVXVXZX3XE :XZXZXVXZXZXZXZXZXZXZXZXZXAXAXAXAXAXAXAX",
"AXAXAXAXAXAXAXAXZXZXZXZXZXZXZXZXZXZXBXZXgXvXZXBXZXZXZXZXZXZXZXZXZXZXZXZXZXZXZXZXVXZXZXpXZXZXVXZXZXZXZXZXZXZXZXZXAXAXAXAXAXAXAXAX",
"AXAXAXAXAXAXAXAXAXZXZXZXZXZXZXZXZXZXZXBXZXZXVXZXZXZXZXZXZXZXZXZXZXZXZXZXZXZXZXZXZXZXVXZXZXVXZXZXZXZXZXZXZXZXZXAXAXAXAXAXAXAXAXAX",
"AXAXAXAXAXAXAXAXAXAXZXZXZXZXZXZXZXZXZXZXVXVXZXZXZXZXZXZXZXZXZXZXZXZXZXZXZXZXZXZXZXZXZXBXZXZXZXZXZXZXZXZXZXZXAXAXAXAXAXAXAXAXAXAX",
"AXAXAXAXAXAXAXAXAXAXAXZXZXZXZXZXZXZXZXZXZXZXZXZXZXZXZXZXZXZXZXZXZXZXZXZXZXZXZXZXZXZXZXZXZXZXZXZXZXZXZXZXZXAXAXAXAXAXAXAXAXAXAXAX",
"AXAXAXAXAXAXAXAXAXAXAXAXAXZXZXZXZXZXZXZXZXZXZXZXZXZXZXZXZXZXZXZXZXZXZXZXZXZXZXZXZXZXZXZXZXZXZXZXZXZXZXZXAXAXAXAXAXAXAXAXAXAXAXAX",
"AXAXAXAXAXAXAXAXAXAXAXAXAXAXZXZXZXZXZXZXZXZXZXZXZXZXZXZXZXZXZXZXZXZXZXZXZXZXZXZXZXZXZXZXZXZXZXZXZXZXAXAXAXAXAXAXAXAXAXAXAXAXAXAX",
"AXAXAXAXAXAXAXAXAXAXAXAXAXAXAXZXZXZXZXZXZXZXZXZXZXZXZXZXZXZXZXZXZXZXZXZXZXZXZXZXZXZXZXZXZXZXZXZXZXAXAXAXAXAXAXAXAXAXAXAXAXAXAXAX",
"AXAXAXAXAXAXAXAXAXAXAXAXAXAXAXAXAXZXZXZXZXZXZXZXZXZXZXZXZXZXZXZXZXZXZXZXZXZXZXZXZXZXZXZXZXZXZXAXAXAXAXAXAXAXAXAXAXAXAXAXAXAXAXAX",
"AXAXAXAXAXAXAXAXAXAXAXAXAXAXAXAXAXAXAXZXZXZXZXZXZXZXZXZXZXZXZXZXZXZXZXZXZXZXZXZXZXZXZXZXZXAXAXAXAXAXAXAXAXAXAXAXAXAXAXAXAXAXAXAX",
"AXAXAXAXAXAXAXAXAXAXAXAXAXAXAXAXAXAXAXAXAXAXZXZXZXZXZXZXZXZXZXZXZXZXZXZXZXZXZXZXZXZXAXAXAXAXAXAXAXAXAXAXAXAXAXAXAXAXAXAXAXAXAXAX",
"AXAXAXAXAXAXAXAXAXAXAXAXAXAXAXAXAXAXAXAXAXAXAXAXAXAXZXZXZXZXZXZXZXZXZXZXZXZXAXAXAXAXAXAXAXAXAXAXAXAXAXAXAXAXAXAXAXAXAXAXAXAXAXAX"
};
