/* XPM */
static char *_8775f9e5d744f678a025e350797f940[] = {
/* columns rows colors chars-per-pixel */
"64 64 256 2 ",
"   c #410000",
".  c #530000",
"X  c #561214",
"o  c #63121F",
"O  c #5C0026",
"+  c #57002B",
"@  c #5B002C",
"#  c #4F003C",
"$  c #520030",
"%  c #580A33",
"&  c #641320",
"*  c #6B0037",
"=  c #670932",
"-  c #7F0F3E",
";  c #520547",
":  c #4B005D",
">  c #590056",
",  c #540E51",
"<  c #6D0743",
"1  c #681944",
"2  c #620053",
"3  c #66145F",
"4  c #6B1258",
"5  c #6B1657",
"6  c #751957",
"7  c #742A5A",
"8  c #420567",
"9  c #580A66",
"0  c #5F1361",
"q  c #610962",
"w  c #601B64",
"e  c #681C70",
"r  c #752760",
"t  c #7F2F7D",
"y  c #81001A",
"u  c #9D0018",
"i  c #95111A",
"p  c #A30000",
"a  c #A0090A",
"s  c #AF0000",
"d  c #B30000",
"f  c #BD0100",
"g  c #8C0029",
"h  c #9D0028",
"j  c #8B0A38",
"k  c #821832",
"l  c #861138",
"z  c #951836",
"x  c #931435",
"c  c #AB152B",
"v  c #BC142D",
"b  c #BA182D",
"n  c #A51B34",
"m  c #CA0000",
"M  c #D40000",
"N  c #DA0000",
"B  c #C31425",
"V  c #F0082F",
"C  c #FD1F23",
"Z  c #F61D2D",
"A  c #FB1E2A",
"S  c #E70035",
"D  c #EA0132",
"F  c #E2003C",
"G  c #ED0934",
"H  c #F31D32",
"J  c #FD2024",
"K  c #FF202C",
"L  c #FB3B25",
"P  c #F73B3C",
"I  c #FD3E3F",
"U  c #FC3C34",
"Y  c #FF4923",
"T  c #FF422D",
"R  c #8A2A43",
"E  c #A92D4E",
"W  c #A0324E",
"Q  c #A93556",
"!  c #B73A5A",
"~  c #B9006D",
"^  c #BC0067",
"/  c #AC007C",
"(  c #B30074",
")  c #872F72",
"_  c #802F7E",
"`  c #853076",
"'  c #98327C",
"]  c #A8327D",
"[  c #BD397E",
"{  c #BD377D",
"}  c #DD0044",
"|  c #D5004D",
" . c #D90049",
".. c #CD0057",
"X. c #C90059",
"o. c #D10053",
"O. c #FF1C4C",
"+. c #DE3C5D",
"@. c #EF3B45",
"#. c #EE3D4F",
"$. c #F63E46",
"%. c #FB3E43",
"&. c #F23D4B",
"*. c #E53C57",
"=. c #EA3D52",
"-. c #E23C5A",
";. c #C82A6C",
":. c #CD3A6E",
">. c #C73669",
",. c #D43B67",
"<. c #DA3C62",
"1. c #D23B6A",
"2. c #D93C68",
"3. c #D5356D",
"4. c #C32A70",
"5. c #C53975",
"6. c #C93972",
"7. c #C13578",
"8. c #C13879",
"9. c #E23D62",
"0. c #CC405B",
"q. c #DF405F",
"w. c #FB4047",
"e. c #F7484E",
"r. c #FC494B",
"t. c #F9414D",
"y. c #EB4154",
"u. c #E4405A",
"i. c #E9425F",
"p. c #F34157",
"a. c #F34953",
"s. c #FE5E5F",
"d. c #FF6059",
"f. c #D6476F",
"g. c #CF4476",
"h. c #E24766",
"j. c #F54760",
"k. c #FF4962",
"l. c #FC4661",
"z. c #F55E63",
"x. c #FA5E61",
"c. c #F34C73",
"v. c #F36067",
"b. c #F16168",
"n. c #6B0093",
"m. c #6C00BD",
"M. c #7600B5",
"N. c #7C00B0",
"B. c #6C2BBE",
"V. c #7C2FB3",
"C. c #782FBC",
"Z. c #7C31BB",
"A. c #7D3DBE",
"S. c #5C00CA",
"D. c #4F00DE",
"F. c #5700D1",
"G. c #6300C5",
"H. c #6D2EC6",
"J. c #682DCC",
"K. c #7020CC",
"L. c #732FC2",
"P. c #6F31C7",
"I. c #6A38CD",
"U. c #7431C2",
"Y. c #763DC5",
"T. c #653DD0",
"R. c #7A3CD3",
"E. c #793FE5",
"W. c #7F59CB",
"Q. c #7659D6",
"!. c #7A59D0",
"~. c #725AD8",
"^. c #9D008B",
"/. c #8F0097",
"(. c #8B009F",
"). c #950093",
"_. c #A40083",
"`. c #953986",
"'. c #9D359B",
"]. c #9E399C",
"[. c #93399C",
"{. c #AB368E",
"}. c #AC3A8E",
"|. c #A23B8C",
" X c #B43785",
".X c #B83781",
"XX c #B53B87",
"oX c #B93982",
"OX c #B0378A",
"+X c #B13A8B",
"@X c #A43594",
"#X c #A53994",
"$X c #AE3A97",
"%X c #A23A98",
"&X c #A4359A",
"*X c #8600A4",
"=X c #8200AA",
"-X c #8930A7",
";X c #8C33AB",
":X c #9334A5",
">X c #9834A0",
",X c #9438A6",
"<X c #9C3AA4",
"1X c #8432B3",
"2X c #8A3FB3",
"3X c #8032B9",
"4X c #883AB7",
"5X c #AA3DA0",
"6X c #A03DB4",
"7X c #F60087",
"8X c #FE36B3",
"9X c #9243AC",
"0X c #9041B9",
"qX c #8C5ABE",
"wX c #905ABA",
"eX c #975CB3",
"rX c #A540A6",
"tX c #A041BE",
"yX c #FF4E8F",
"uX c #EE5089",
"iX c #FC5183",
"pX c #ED4A95",
"aX c #FB52A2",
"sX c #FF6BBF",
"dX c #8E3BC4",
"fX c #9C47C2",
"gX c #845AC4",
"hX c #8C46DB",
"jX c #9145D4",
"kX c #8164E9",
"lX c #CECAC4",
"zX c #CFCAC8",
"xX c #D1CACD",
"cX c #D2C9DE",
"vX c #DDCBDB",
"bX c #D6CBD8",
"nX c #D5D0D3",
"mX c #E4CBCB",
"MX c #ECCACB",
"NX c #F7CAC7",
"BX c #F4CBCD",
"VX c #FBC9C9",
"CX c #FAC9C2",
"ZX c #E5CBD5",
"AX c #EDCBD1",
"SX c #E1CBD8",
"DX c #F0CBD0",
"FX c #EBD0D7",
"GX c #E3D0D0",
"HX c #FFCAE2",
"JX c #FEEFEE",
"KX c #EFEEFA",
"LX c #F1EFF6",
"PX c #F0EFF9",
"IX c #FFFFFF",
"UX c None",
/* pixels */
"UXUXUXUXUXUXUXUXUXUXIXIXIXIXIXIXIXIXIXIXIXIXIXIXIXIXIXIXIXIXIXIXIXIXIXIXIXIXIXIXIXIXIXIXIXIXIXIXIXIXIXIXIXIXUXUXUXUXUXUXUXUXUXUX",
"UXUXUXUXUXUXUXUXIXIXIXIXIXIXIXIXIXIXIXIXIXIXIXIXIXIXIXIXIXIXIXIXIXIXIXIXIXIXIXIXIXIXIXIXIXIXIXIXIXIXIXIXIXIXIXIXUXUXUXUXUXUXUXUX",
"UXUXUXUXUXUXIXIXIXIXIXIXIXIXIXIXIXIXIXIXIXIXIXIXIXIXIXIXIXIXIXIXIXIXIXIXIXIXIXIXIXIXIXIXIXIXIXIXIXIXIXIXIXIXIXIXIXIXUXUXUXUXUXUX",
"UXUXUXUXUXIXIXIXIXIXIXIXIXIXIXIXIXIXIXIXIXIXIXIXIXIXIXIXIXIXIXIXIXIXIXIXIXIXIXIXIXIXIXIXIXIXIXIXIXIXIXIXIXIXIXIXIXIXIXUXUXUXUXUX",
"UXUXUXUXIXIXIXIXIXIXIXIXIXIXIXIXIXIXIXIXIXIXIXIXIXIXIXIXIXIXIXIXIXIXIXIXIXIXIXIXIXIXIXIXIXIXIXIXIXIXIXIXIXIXIXIXIXIXIXIXUXUXUXUX",
"UXUXUXIXIXIXIXIXIXIXIXIXIXIXIXIXIXIXIXIXIXIXIXIXIXIXIXIXIXIXIXIXIXIXIXIXIXIXIXIXIXIXIXIXIXIXIXIXIXIXIXIXIXIXIXIXIXIXIXIXIXUXUXUX",
"UXUXIXIXIXIXIXIXIXIXIXIXIXIXIXIXIXIXIXIXIXIXIXIXIXIXIXIXIXIXIXIXIXIXIXIXIXIXIXIXIXIXIXIXIXIXIXIXIXIXIXIXIXIXIXIXIXIXIXIXIXIXUXUX",
"UXIXIXIXIXIXIXIXIXIXIXIXIXIXIXIXIXIXIXIXIXIXIXIXIXIXIXIXIXIXIXIXIXIXIXIXIXIXIXIXIXIXIXIXIXIXIXIXIXIXIXIXIXIXIXIXIXIXIXIXIXIXUXUX",
"UXIXIXIXIXIXIXIXIXIXIXIXIXIXIXIXIXIXIXPXIXIXIXIXIXIXIXIXIXIXIXIXIXIXIXIXIXIXIXIXIXIXIXIXIXIXIXIXIXIXIXIXIXIXIXIXIXIXIXIXIXIXIXUX",
"UXIXIXIXIXIXIXIXIXIXIXIXIXIXIXIXIXIXKXkXcXIXIXIXIXIXIXIXIXIXIXIXIXIXIXIXIXIXIXIXIXIXIXcXkXPXIXIXIXIXIXIXIXIXIXIXIXIXIXIXIXIXIXUX",
"IXIXIXIXIXIXIXIXIXIXIXIXIXIXIXIXIXPX~.D.K.zXIXIXIXIXIXIXIXIXIXIXIXIXIXIXIXIXIXIXIXIXlXK.D.~.PXIXIXIXIXIXIXIXIXIXIXIXIXIXIXIXIXIX",
"IXIXIXIXIXIXIXIXIXIXIXIXIXIXIXIXPXQ.F.T.E.n.lXIXIXIXIXIXIXIXIXIXIXIXIXIXIXIXIXIXIXlXn.E.T.F.Q.PXIXIXIXIXIXIXIXIXIXIXIXIXIXIXIXIX",
"IXIXIXIXIXIXIXIXIXIXIXIXIXIXIXKX!.S.I.J.J.hX+ zXIXIXIXIXIXIXIXIXIXIXIXIXIXIXIXIXlX$ hXI.J.I.S.!.KXIXIXIXIXIXIXIXIXIXIXIXIXIXIXIX",
"IXIXIXIXIXIXIXIXIXIXIXIXIXIXKXW.G.Y.P.P.H.R.0X  xXIXIXIXIXIXIXIXIXIXIXIXIXIXIXxX  2XR.H.P.P.Y.G.W.KXIXIXIXIXIXIXIXIXIXIXIXIXIXIX",
"IXIXIXIXIXIXIXIXIXIXIXIXIXKXgXm.Y.L.U.U.U.B.hXt   xXIXIXIXIXIXIXIXIXIXIXIXIXxX  t jXH.U.U.U.U.Y.m.gXLXIXIXIXIXIXIXIXIXIXIXIXIXIX",
"IXIXIXIXIXIXIXIXIXIXIXIXKXqXm.A.C.A.C.C.C.C.C.fXo . zXIXIXIXIXIXIXIXIXIXIXzX. o fXC.C.C.C.C.C.C.A.m.qXKXIXIXIXIXIXIXIXIXIXIXIXIX",
"IXIXIXIXIXIXIXIXIXIXIXLXqXM.A.V.Z.1XZ.Z.3X3XV.dX[.. O xXIXIXIXIXIXIXIXIXxXO . [.dXV.3XV.3X3XV.3XV.A.M.qXLXIXIXIXIXIXIXIXIXIXIXIX",
"IXIXIXIXIXIXIXIXIXIXLXwXN.4X1X1X1X1X1X1X1X1X1XV.tXr = O xXIXIXIXIXIXIXxXO = r 6XV.4X1X3X1X1X1X3X1X1X2XN.wXLXIXIXIXIXIXIXIXIXIXIX",
"IXIXIXIXIXIXIXIXIXLXeX=X2X;X;X;X;X;X1X;X;X;X;X;X;X<XX 4 O xXIXIXIXIXxX+ 5 X <X4X;X;X;X;X;X;X;X;X1X;X;X2XN.eXLXIXIXIXIXIXIXIXIXIX",
"IXIXIXIXIXIXIXIXIXeX*X9X-X:X;X;X;X;X;X:X;X:X;X;X-X6X) % 5 @ xXIXIXzX@ 6 % ` 6X-X;X;X:X;X;X;X;X;X;X:X;X;X9X*XeXIXIXIXIXIXIXIXIXIX",
"IXIXIXIXIXIXIXIXIXcX(.:X,X:X:X:X:X:X:X:X:X:X:X:X:X:X<X1 5 5 $ nXxX$ 4 5 1 <X;X:X:X:X:X:X:X:X:X:X:X:X,X,X:X(.cXIXIXIXIXIXIXIXIXIX",
"IXIXIXIXIXIXIXIXIXIXbX/.>X>X>X>X>X>X>X>X>X>X>X>X>X>X<X`.# 3 2 2 2 2 3 # `.<X>X'.>X>X>X>X>X>X>X>X:X'.>X>X/.vXIXIXIXIXIXIXIXIXIXIX",
"IXIXIXIXIXIXIXIXIXIXIXvX).].].'.'.'.'.'.'.'.'.'.'.'.'.5Xr > 3 3 3 3 > r 5X'.].'.'.'.'.'.'.'.'.'.'.].].).vXIXIXIXIXIXIXIXIXIXIXIX",
"IXIXIXIXIXIXIXIXIXIXIXIXvX^.@X@X@X@X&X@X'.@X@X].'.@X@X&X|., q 0 0 q , |.].@X@X@X'.@X&X@X@X'.@X@X@X@X^.vXIXIXIXIXIXIXIXIXIXIXIXIX",
"IXIXIXIXIXIXIXIXIXIXIXIXIXSX^.#X#X@X@X@X@X@X@X@X@X@X@X|.$X) : 9 0 : ) $X@X{.@X@X@X@X@X@X{.#X#X#X}.^.vXIXIXIXIXIXIXIXIXIXIXIXIXIX",
"IXIXIXIXIXIXIXIXIXIXIXIXIXIXSX_.}.}.{.{.{.{.OX{.OX{.{.{.{.}.w 9 9 w {.{.{.{.{.{.{.{.OX{.{.{.}.}._.SXIXIXIXIXIXIXIXIXIXIXIXIXIXIX",
"IXIXIXIXIXIXIXIXIXIXIXIXIXIXIXSX/ +X+XOX|.OXOXOXOXOX XOXOX+X' 8 8 ' +X{.OXOXOXOXOXOXXX+XOXOXOX/ SXIXIXIXIXIXIXIXIXIXIXIXIXIXIXIX",
"IXIXIXIXIXIXIXIXIXIXIXIXIXIXIXIXZX/ XXXX X[ OXOX X X X XXX XoXe e  X X X.XXX X X X X XXXXXXX/ ZXIXIXIXIXIXIXIXIXIXIXIXIXIXIXIXIX",
"IXIXIXIXIXIXIXIXIXIXIXIXIXIXIXIXIXZX( [ oX.X[ [ .X.X.X.X.X.X.X] ] .X.X.X.X.X.X.X.X.X.XXX.X( SXIXIXIXIXIXIXIXIXIXIXIXIXIXIXIXIXIX",
"IXIXIXIXIXIXIXIXIXIXIXIXIXIXIXIXIXIXZX~ [ [ { { { { { { [ [ { [ [ [ [ { [ { [ [ [ [ [ [ ~ ZXIXIXIXIXIXIXIXIXIXIXIXIXIXIXIXIXIXIX",
"IXIXIXIXIXIXIXIXIXIXIXIXIXIXIXIXIXIXIXZX^ { [ { 8.8.8.8.8.8.8.8.8.8.8.8.8.8.8.8.8.8.7.^ ZXIXIXIXIXIXIXIXIXIXIXIXIXIXIXIXIXIXIXIX",
"IXIXIXIXIXIXIXIXIXIXIXIXIXIXIXIXIXIXIXIXFX4.g.5.5.5.5.5.5.5.5.5.5.5.5.5.5.5.5.5.5.5.4.FXIXIXIXIXIXIXIXIXIXIXIXIXIXIXIXIXIXIXIXIX",
"IXIXIXIXIXIXIXIXIXIXIXIXIXIXIXIXIXIXIXIXFX;.6.6.6.6.6.6.6.5.5.5.6.6.6.6.6.6.6.6.6.6.;.FXIXIXIXIXIXIXIXIXIXIXIXIXIXIXIXIXIXIXIXIX",
"IXIXIXIXIXIXIXIXIXIXIXIXIXIXIXIXIXIXIXAXX.>.:.1.:.:.:.>.:.:.1.:.:.:.:.>.:.:.:.:.>.:.:.X.AXIXIXIXIXIXIXIXIXIXIXIXIXIXIXIXIXIXIXIX",
"IXIXIXIXIXIXIXIXIXIXIXIXIXIXIXIXIXIXAX..1.1.>.3.1.1.1.1.,.1.1.,.1.1.1.1.1.1.1.1.1.3.1.1...AXIXIXIXIXIXIXIXIXIXIXIXIXIXIXIXIXIXIX",
"IXIXIXIXIXIXIXIXIXIXIXIXIXIXIXIXIXMXo.2.f.1.,.,.2.1.,.,.,.,.<.>.>.2.,.,.,.,.,.,.,.,.,.,.,.o.AXIXIXIXIXIXIXIXIXIXIXIXIXIXIXIXIXIX",
"IXIXIXIXIXIXIXIXIXIXIXIXIXIXIXIXAX| <.q.<.<.3.<.<.<.<.<.<.,.<.6 6 <.<.<.<.<.<.,.<.<.<.<.f.q.| DXIXIXIXIXIXIXIXIXIXIXIXIXIXIXIXIX",
"IXIXIXIXIXIXIXIXIXIXIXIXIXIXIXAX .+.<.2.+.<.+.<.<.<.<.<.<.9.! ; ; ! 9.<.<.<.<.<.<.<.<.<.<.q.<. .MXIXIXIXIXIXIXIXIXIXIXIXIXIXIXIX",
"IXIXIXIXIXIXIXIXIXIXIXIXIXIXBX} +.q.+.+.+.+.+.+.+.+.+.+.-.q.1 < < 1 +.<.+.+.-.+.+.+.+.+.+.+.q.+.} BXIXIXIXIXIXIXIXIXIXIXIXIXIXIX",
"IXIXIXIXIXIXIXIXIXIXIXIXIXBXF u.u.-.-.-.-.-.-.-.*.+.-.*.i.W * - l * W -.*.-.-.-.-.*.+.*.+.*.-.u.*.} MXIXIXIXIXIXIXIXIXIXIXIXIXIX",
"IXIXIXIXIXIXIXIXIXIXIXIXBXF *.u.*.*.*.*.*.*.*.*.*.*.*.=.0.= j l l j = 0.=.*.*.*.*.*.*.*.*.*.*.*.u.u.F BXIXIXIXIXIXIXIXIXIXIXIXIX",
"IXIXIXIXIXIXIXIXIXIXIXBXD =.y.*.=.*.=.=.*.y.=.*.*.*.#.i.R g z z x z g R i.=.=.*.y.=.*.=.=.=.y.*.=.y.y.S BXIXIXIXIXIXIXIXIXIXIXIX",
"IXIXIXIXIXIXIXIXIXIXBXD y.y.#.#.=.=.#.=.=.#.#.=.=.#.p.! y n h u u h n y ! p.=.#.#.=.=.#.=.=.#.=.=.#.y.=.D NXIXIXIXIXIXIXIXIXIXIX",
"IXIXIXIXIXIXIXIXIXVXV y.y.#.#.#.#.#.#.#.#.#.#.#.#.&.h.k c c p GXGXp c c k h.&.#.y.#.#.#.#.#.#.#.#.#.#.#.#.G NXIXIXIXIXIXIXIXIXIX",
"IXIXIXIXIXIXIXIXJXb.G a.&.#.&.#.&.&.&.#.&.#.&.&.@.j.Q a v s mXIXIXmXs b a Q j.@.&.&.#.&.&.#.#.&.&.&.#.&.a.V b.IXIXIXIXIXIXIXIXIX",
"IXIXIXIXIXIXIXIXIXJXv.H a.$.&.$.&.t.&.&.t.&.&.@.t.f.i B f mXIXIXIXIXmXf B i f.t.&.&.&.&.&.&.&.$.&.&.&.a.H z.JXIXIXIXIXIXIXIXIXIX",
"IXIXIXIXIXIXIXIXIXIXJXz.Z a.$.@.@.$.$.$.$.$.t.P c.E f m MXIXIXIXIXIXIXMXm f E c.P t.$.$.$.$.$.$.$.$.e.H z.JXIXIXIXIXIXIXIXIXIXIX",
"IXIXIXIXIXIXIXIXIXIXIXJXx.Z e.$.w.$.$.$.$.$.P j.g.d M MXIXIXIXIXIXIXIXIXMXM d g.l.P $.$.$.$.$.$.$.e.Z x.JXIXIXIXIXIXIXIXIXIXIXIX",
"IXIXIXIXIXIXIXIXIXIXIXIXJXx.A e.%.%.%.%.%.$.I uXv M BXIXIXIXIXIXIXIXIXIXIXBXM v uX%.$.%.%.%.%.%.e.A x.JXIXIXIXIXIXIXIXIXIXIXIXIX",
"IXIXIXIXIXIXIXIXIXIXIXIXIXJXx.C r.I %.%.$.L iX3.M BXIXIXIXIXIXIXIXIXIXIXIXIXBXM 3.iXL w.%.%.%.r.C x.JXIXIXIXIXIXIXIXIXIXIXIXIXIX",
"IXIXIXIXIXIXIXIXIXIXIXIXIXIXJXs.C r.I %.U l.pXN BXIXIXIXIXIXIXIXIXIXIXIXIXIXIXNXN pXk.U %.I r.C s.JXIXIXIXIXIXIXIXIXIXIXIXIXIXIX",
"IXIXIXIXIXIXIXIXIXIXIXIXIXIXIXJXs.C r.%.T aXD VXIXIXIXIXIXIXIXIXIXIXIXIXIXIXIXIXVXD aXL %.r.C s.JXIXIXIXIXIXIXIXIXIXIXIXIXIXIXIX",
"IXIXIXIXIXIXIXIXIXIXIXIXIXIXIXIXJXs.C Y yX7XCXIXIXIXIXIXIXIXIXIXIXIXIXIXIXIXIXIXIXCX7XyXY C s.JXIXIXIXIXIXIXIXIXIXIXIXIXIXIXIXIX",
"IXIXIXIXIXIXIXIXIXIXIXIXIXIXIXIXIXJXd.O.8XVXIXIXIXIXIXIXIXIXIXIXIXIXIXIXIXIXIXIXIXIXVX8XO.d.JXIXIXIXIXIXIXIXIXIXIXIXIXIXIXIXIXIX",
"UXIXIXIXIXIXIXIXIXIXIXIXIXIXIXIXIXIXJXsXHXIXIXIXIXIXIXIXIXIXIXIXIXIXIXIXIXIXIXIXIXIXIXHXsXJXIXIXIXIXIXIXIXIXIXIXIXIXIXIXIXIXIXUX",
"UXIXIXIXIXIXIXIXIXIXIXIXIXIXIXIXIXIXIXIXIXIXIXIXIXIXIXIXIXIXIXIXIXIXIXIXIXIXIXIXIXIXIXIXIXIXIXIXIXIXIXIXIXIXIXIXIXIXIXIXIXIXIXUX",
"UXUXIXIXIXIXIXIXIXIXIXIXIXIXIXIXIXIXIXIXIXIXIXIXIXIXIXIXIXIXIXIXIXIXIXIXIXIXIXIXIXIXIXIXIXIXIXIXIXIXIXIXIXIXIXIXIXIXIXIXIXIXUXUX",
"UXUXIXIXIXIXIXIXIXIXIXIXIXIXIXIXIXIXIXIXIXIXIXIXIXIXIXIXIXIXIXIXIXIXIXIXIXIXIXIXIXIXIXIXIXIXIXIXIXIXIXIXIXIXIXIXIXIXIXIXIXIXUXUX",
"UXUXUXIXIXIXIXIXIXIXIXIXIXIXIXIXIXIXIXIXIXIXIXIXIXIXIXIXIXIXIXIXIXIXIXIXIXIXIXIXIXIXIXIXIXIXIXIXIXIXIXIXIXIXIXIXIXIXIXIXIXUXUXUX",
"UXUXUXUXIXIXIXIXIXIXIXIXIXIXIXIXIXIXIXIXIXIXIXIXIXIXIXIXIXIXIXIXIXIXIXIXIXIXIXIXIXIXIXIXIXIXIXIXIXIXIXIXIXIXIXIXIXIXIXIXUXUXUXUX",
"UXUXUXUXUXIXIXIXIXIXIXIXIXIXIXIXIXIXIXIXIXIXIXIXIXIXIXIXIXIXIXIXIXIXIXIXIXIXIXIXIXIXIXIXIXIXIXIXIXIXIXIXIXIXIXIXIXIXIXUXUXUXUXUX",
"UXUXUXUXUXUXIXIXIXIXIXIXIXIXIXIXIXIXIXIXIXIXIXIXIXIXIXIXIXIXIXIXIXIXIXIXIXIXIXIXIXIXIXIXIXIXIXIXIXIXIXIXIXIXIXIXIXIXUXUXUXUXUXUX",
"UXUXUXUXUXUXUXUXIXIXIXIXIXIXIXIXIXIXIXIXIXIXIXIXIXIXIXIXIXIXIXIXIXIXIXIXIXIXIXIXIXIXIXIXIXIXIXIXIXIXIXIXIXIXIXIXUXUXUXUXUXUXUXUX",
"UXUXUXUXUXUXUXUXUXUXIXIXIXIXIXIXIXIXIXIXIXIXIXIXIXIXIXIXIXIXIXIXIXIXIXIXIXIXIXIXIXIXIXIXIXIXIXIXIXIXIXIXIXIXUXUXUXUXUXUXUXUXUXUX"
};
