/* XPM */
static char *_9127_68c458b76f00ea038da28456f9a866ac81637fbe8aa70006fe0c4fe00ddd2bd2[] = {
/* columns rows colors chars-per-pixel */
"64 64 242 2 ",
"   c black",
".  c #010101",
"X  c #020202",
"o  c gray1",
"O  c #040404",
"+  c gray2",
"@  c #060606",
"#  c #070707",
"$  c gray3",
"%  c #090909",
"&  c gray4",
"*  c #0B0B0B",
"=  c #0C0C0C",
"-  c gray5",
";  c #0E0E0E",
":  c gray6",
">  c #101010",
",  c #111111",
"<  c gray7",
"1  c #131313",
"2  c gray8",
"3  c #151515",
"4  c #161616",
"5  c gray9",
"6  c #181818",
"7  c #191919",
"8  c gray10",
"9  c #1B1B1B",
"0  c gray11",
"q  c #1D1D1D",
"w  c #1E1E1E",
"e  c gray12",
"r  c #202020",
"t  c gray13",
"y  c #222222",
"u  c #232323",
"i  c gray14",
"p  c #252525",
"a  c gray15",
"s  c #272727",
"d  c #282828",
"f  c gray16",
"g  c #2A2A2A",
"h  c gray17",
"j  c #2C2C2C",
"k  c #2D2D2D",
"l  c #2F2F2F",
"z  c gray19",
"x  c #313131",
"c  c #323232",
"v  c gray20",
"b  c #343434",
"n  c #353535",
"m  c gray21",
"M  c #373737",
"N  c #393939",
"B  c #3A3A3A",
"V  c gray24",
"C  c #3F3F3F",
"Z  c #414141",
"A  c gray26",
"S  c #434343",
"D  c #444444",
"F  c gray27",
"G  c #464646",
"H  c gray28",
"J  c #484848",
"K  c #494949",
"L  c gray29",
"P  c #4B4B4B",
"I  c gray30",
"U  c gray31",
"Y  c #515151",
"T  c gray32",
"R  c #535353",
"E  c gray33",
"W  c #555555",
"Q  c gray34",
"!  c #585858",
"~  c gray35",
"^  c #5B5B5B",
"/  c gray36",
"(  c #5D5D5D",
")  c gray37",
"_  c #5F5F5F",
"`  c #606060",
"'  c gray38",
"]  c #626262",
"[  c gray39",
"{  c #646464",
"}  c #656565",
"|  c gray40",
" . c #686868",
".. c DimGray",
"X. c #6A6A6A",
"o. c gray42",
"O. c #6C6C6C",
"+. c #6D6D6D",
"@. c gray43",
"#. c #6F6F6F",
"$. c gray44",
"%. c #717171",
"&. c #727272",
"*. c gray45",
"=. c #747474",
"-. c gray46",
";. c #767676",
":. c gray47",
">. c #797979",
",. c gray48",
"<. c #7B7B7B",
"1. c #7C7C7C",
"2. c gray49",
"3. c #7E7E7E",
"4. c gray50",
"5. c #808080",
"6. c #818181",
"7. c gray51",
"8. c #838383",
"9. c #848484",
"0. c gray52",
"q. c #868686",
"w. c gray53",
"e. c #888888",
"r. c #898989",
"t. c gray54",
"y. c #8B8B8B",
"u. c gray55",
"i. c #8D8D8D",
"p. c #8E8E8E",
"a. c gray56",
"s. c #909090",
"d. c gray57",
"f. c #929292",
"g. c #939393",
"h. c gray58",
"j. c #959595",
"k. c gray59",
"l. c #979797",
"z. c #989898",
"x. c gray60",
"c. c #9A9A9A",
"v. c #9B9B9B",
"b. c gray61",
"n. c #9D9D9D",
"m. c gray62",
"M. c #A0A0A0",
"N. c gray63",
"B. c #A2A2A2",
"V. c gray64",
"C. c #A4A4A4",
"Z. c #A5A5A5",
"A. c gray65",
"S. c #A7A7A7",
"D. c gray66",
"F. c #A9A9A9",
"G. c #AAAAAA",
"H. c gray67",
"J. c #ACACAC",
"K. c gray68",
"L. c #AEAEAE",
"P. c #AFAFAF",
"I. c gray69",
"U. c #B1B1B1",
"Y. c #B2B2B2",
"T. c gray70",
"R. c #B4B4B4",
"E. c gray71",
"W. c #B7B7B7",
"Q. c gray72",
"!. c #B9B9B9",
"~. c gray73",
"^. c #BBBBBB",
"/. c #BCBCBC",
"(. c gray74",
"). c gray",
"_. c gray75",
"`. c #C0C0C0",
"'. c #C1C1C1",
"]. c gray76",
"[. c #C3C3C3",
"{. c gray77",
"}. c #C5C5C5",
"|. c #C6C6C6",
" X c gray78",
".X c #C8C8C8",
"XX c gray79",
"oX c #CACACA",
"OX c #CBCBCB",
"+X c gray80",
"@X c #CDCDCD",
"#X c #CECECE",
"$X c gray81",
"%X c #D0D0D0",
"&X c gray82",
"*X c #D2D2D2",
"=X c LightGray",
"-X c gray83",
";X c #D5D5D5",
":X c gray84",
">X c #D7D7D7",
",X c #D8D8D8",
"<X c gray85",
"1X c #DADADA",
"2X c gray86",
"3X c gainsboro",
"4X c #DDDDDD",
"5X c gray87",
"6X c #DFDFDF",
"7X c gray88",
"8X c #E1E1E1",
"9X c #E2E2E2",
"0X c gray89",
"qX c #E4E4E4",
"wX c gray90",
"eX c #E6E6E6",
"rX c #E7E7E7",
"tX c gray91",
"yX c #E9E9E9",
"uX c #EAEAEA",
"iX c gray92",
"pX c #ECECEC",
"aX c gray93",
"sX c #EEEEEE",
"dX c #EFEFEF",
"fX c gray94",
"gX c #F1F1F1",
"hX c gray95",
"jX c #F3F3F3",
"kX c #F4F4F4",
"lX c gray96",
"zX c #F6F6F6",
"xX c gray97",
"cX c #F8F8F8",
"vX c #F9F9F9",
"bX c gray98",
"nX c #FBFBFB",
"mX c gray99",
"MX c #FDFDFD",
"NX c #FEFEFE",
"BX c white",
"VX c None",
/* pixels */
"VXVXVXVXVXVXVXVXVXVXVXVXVXVXVXVXVXVXVXVXVXVXVXVXVXVXVXVXVXVXVXVXVXVXVXVXVXVXVXVXVXVXVXVXVXVXVXVXVXVXVXVXVXVXVXVXVXVXVXVXVXVXVXVX",
"VXVXVXVXVXVXVXVXVXVXVXVXVXVXVXVXVXVXVXVXVXVXVXVXVXBXBXBXBXMXbXBXBXBXBXBXBXBXBXVXVXVXVXVXVXVXVXVXVXVXVXVXVXVXVXVXVXVXVXVXVXVXVXVX",
"VXVXVXVXVXVXVXVXVXVXVXVXVXVXVXVXVXVXVXVXVXVXmXBXBXBXpXW.M.7.| 2.d.d.u.A.*XgXBXBXBXBXVXVXVXVXVXVXVXVXVXVXVXVXVXVXVXVXVXVXVXVXVXVX",
"VXVXVXVXVXVXVXVXVXVXVXVXVXVXVXVXVXVXVXNXMXBXBXBXT.<                       0 $.P.0XBXBXNXnXVXVXVXVXVXVXVXVXVXVXVXVXVXVXVXVXVXVXVX",
"VXVXVXVXVXVXVXVXVXVXVXVXVXVXVXVXVXNXBXBXBXcX2Xj.  d %.  B ' F ;.$.C     a         =.A.8XBXyXOXVXVXVXVXVXVXVXVXVXVXVXVXVXVXVXVXVX",
"VXVXVXVXVXVXVXVXVXVXVXVXVXVXVXBXBXBXBXkX'.!       M -._.eXkXqXpXhXgX,Xn.  F     r     6.,XnXBXnXBXVXVXVXVXVXVXVXVXVXVXVXVXVXVXVX",
"VXVXVXVXVXVXVXVXVXVXVXVXVXVXBXBXBXfXj.:   h +.Z.^.wXhXBXBXMXNXBXBXNXBXBX=XoXZ.~   w e     t.0XBXBXBXVXVXVXVXVXVXVXVXVXVXVXVXVXVX",
"VXVXVXVXVXVXVXVXVXVXVXVXBXBXBXBXrXi.l.C.E.rXMXBXBXBXBXlXMXmXMXmXbXcXbXbXBXbX&XZ.' s   * 5      XvXBXBXBXVXVXVXVXVXVXVXVXVXVXVXVX",
"VXVXVXVXVXVXVXVXVXVXVXNXBXBXMXBXtXsXBXBXBXBXBXMXMXBXvX.XbXNXNXBXvXcXxXjXbXBXxXzX:XR   V   e $   A.BXNXBXBXVXVXVXVXVXVXVXVXVXVXVX",
"VXVXVXVXVXVXVXVXVXVXBXBXBXBXBXNXBXBXMXnXNXMXMXMXNXnXNX#XzXBXBXNXcXgXxXnXcXzXBXBXBX3X  @.N   4   y 8XBXMXBXBXVXVXVXVXVXVXVXVXVXVX",
"VXVXVXVXVXVXVXVXVXBXBXMXNXmXvXMXMXNXBXBXBXBXNXnXBXmXBX8XjXBXNXnXbXjXvXmXBXgXlXMXnXbX^.4.V @   0   } cXBXNXBXBXVXVXVXVXVXVXVXVXVX",
"VXVXVXVXVXVXVXVXBXBXnXBXNXNXNXxXaXBXBXBXBXBXzXnXBXMXMX9XtXBXmXwXMXbXkXcXnXmXxXvXmXvXxXfXz.  ,   u   P.BXMXBXBXBXVXVXVXVXVXVXVXVX",
"VXVXVXVXVXVXVXBXBXBXNXBXBXBXmXMXmXNXBXBXBXNXvXMXnXvXBX1X5XBXbXhXMXMXBXbXzXcXnXNXmXbXNXBX0X:.  4 # + 2 yXBXNXBXBXBXVXVXVXVXVXVXVX",
"VXVXVXVXVXVXVXBXBXBXBXNXMXBXBXBXBXBXBXBXMXNXBXBXnXNXBX3X4XBXkXvXmXnXMXBXMXMXMXmXBXMXNXbXbX&X  4 X 8   7.jXMXBXBXBXVXVXVXVXVXVXVX",
"VXVXVXVXVXVXmXBXBXmXmXlXN.nXsXaXBXMXMXNXMXNXnXNXBXmXBXyXwXcX>XBXNXbXMXMXnXBXNXBXNXMXBXBXBXXX# . @ X 8   !.BXNXBXBXBXVXVXVXVXVXVX",
"VXVXVXVXVXnXlXvX0XD.kXU.B.vXf.iXBXmXMXBXNXmXmXNXBXnXzXnXMX0XaXBXNXNXNXlXtXvXBXNXBXNXBXmXBXL.  e   . 2   %.nXBXBXBXBXBXVXVXVXVXVX",
"VXVXVXVXVXBXBXrXg   6.r 8X`.Q BXBXBXBXBXBXvXNXBXMXBXNXBXkXsXvXkXBXNXNXnXmXmXmXnXvXnXBXBXxX .  <     O -   6XBXNXBXBXBXVXVXVXVXVX",
"VXVXVXVXBXBXBXpXa 9     e.l c  XBXNXBXBXNXNXBXBXmXBXBXcX{.nXmXlXMXBXMXNXBXMXMXBXxXcXNXgXxX*X  O +   . 8   n.lXfXkXzXcXjXVXVXVXVX",
"VXVXVXVXBXNXBXjXI   8 =   :   Y bXBXNXNXcXNXBXNXBXvXnX2XfXBXhXpXcXBXMXNXBXMXNXNXBXNXmXgXdXjX0.  3 .   ;   R iXsXlXMXbXBXVXVXVXVX",
"VXVXVXBXBXNXBXlX|   ,   7 1    .).dXBXNXmXNXNXNXBXbX:X6XBXNXnXnXNXNXmXnXvXBXBXNXMXBXBXBXNXBXJ.  q .   . 0   #XBXmXBXBXBXBXVXVXVX",
"VXVXVXBXNXBXNXe.    &     ;   / }.zXBXBXNXMXmXmXMXnX*XnXMXNXBXBXBXxXMXNXlXNXNXBXBXBXMXbXBXhX[   <       y   J.BXNXBXBXBXBXVXVXVX",
"VXVXBXBXBXbXM.  R (   * . 3   1.BXBXNXNXBXNXNXMXnXnXmXBXjXmXBXNXBXvXMXBXBXBXBXxXjXjXBXMXkX=X  t   .   . q   v.BXNXBXBXBXBXBXVXVX",
"VXVXBXBXBX9Xx.N.h.)   w & 1   W kXBXMXmXMXBXBXBXBXkXgXBXkXbXBXBXBXNXBXBXBXmXL.' K l T.bXmXgX&.  r     . 5   w.NXBXBXBXBXBXBXVXVX",
"VXVXBXBXBXBXBXBX{.        0   _.BXBXBXBXBXBXnXvXgXwXxXNXmXnXNXMXBXBXMXNXBXB.  Y       ] qXBXyXZ   7   . 3   ,.MXBXBXBXBXBXBXVXVX",
"VXBXBXMXbXNXBX:X( S s.Z.b p   ,XBX0XXXD.m.g.` d.A.].BXMXMXnXmXbXBXBXmXBX@X  8   : = 0   7 Y.mX0XM   <   1   #.nXBXBXBXBXBXBXBXVX",
"VXBXBXNXnXnX}.F.' V.bXiX1XP ].].| >               C.BXNXMXBXBXNXmXNXBXrXG   3 $       4     T -X,X&   # 1   @.mXBXBXBXBXBXBXBXVX",
"VXBXBXBXBXdXiXBXR.,.jXB.3.0X:X    : q t q 8 < 5 0   |.BXBXvX,X*X0X%Xk.K   <             $ t     d.2.  < 1   @.mXBXBXBXBXBXBXBXVX",
"VXBXNXBXNXMXBXBX@X  }.0.d.lXC   p     .   .     6   | NX&XS.7XlXuXgX`   e                   1 6   4   . 2   %.nXMXBXBXBXBXBXBXVX",
"VXBXBXBXBXBXMXBXwX  w.[.g.).  s   N 0   .     . >   :.XXy.W.BXjX;XgXk                         o ;   .   2   -.MXBXBXBXNXBXBXBXVX",
"BXBXBXBXBXBXNXmXBX[ @./.L.`.    4.XX  = o       $   Q d.*Xm.rXsX@XBX#.F D 3                     X X @ X 4   2.NXBXNXBXBXBXBXBXBX",
"BXBXBXBXBXBXBXbXwXr.    $X].    p.j.  7         3   _ ~.fX].tXyX|.MXQ   =.G   @                   O     5   4.NXBXNXBXBXBXBXBXBX",
"BXBXBXBXBXbXnXsX>.y.#   B.E.  p     >         #   c ^.M.BX0XvXyX.XBXL   e y   X                 O   v 0 <   q.NXBXBXBXBXBXBXBXBX",
"BXBXBXBXBXmXmXMXk.X.q   i.H.  a ; 1   .     . 1   f.r.%XBXI.yXeXn.2XR   @   X                 X -   H.T     x.BXNXBXBXBXBXBXBXBX",
"BXBXBXBXBXBXbXBXG.  Q.  9.2Xz   5   o O + @ . 0 j   }.BX].x gXMX$X5.  r   = r -   .       .   %   c >XI     C.BXNXBXBXBXBXBXBXBX",
"BXBXBXBXBXBXnXBX8XJ.Q.  b lX{.* O w - = O   5     B.BXBXF.R mXvXvXqXV   q       w . = 1 # q r 9   2.yXf 6   Y.BXMXBXBXBXBXBXBXBX",
"BXBXBXBXBXBXBXMXBXt.  d   &XBXK.        & 7   h.(.xXMXnX'.o.A.{ a :.!.u   p.(.B   1     :         2X#X  k    XBXMXBXBXBXBXBXBXVX",
"VXBXBXBXBXBXNXMXvX=.3.k   m.BXbX<Xj.;X8XqX,X[.kXBXmX2XdXgX1.    +   z.;X  s.BXXX5.  J O.c _./.,X7XdX$.  d   ~.BXMXBXBXBXBXBXBXVX",
"VXBXBXBXBXBXBXNXmX/.P.E   o.BXxXBXBXcXxXMXBXBXzXBX2X8.vXpXn   8 = q   8Xm.  =XBXNX0XeXcX*XXXyXrXQ.^     1   K aXBXNXBXBXBXBXBXVX",
"VXBXBXBXMXMXMXMXBX%X0 v H.u.~.lXfX<XeXlXMXzXcXBXcX{ L.BXE.  t     q   b.5X  R.BXcXBXBXzXMXkXP.      _ Q   a   G.BXMXBXBXBXBXBXVX",
"VXBXBXNXbXbXxXnXBX X  h =XBXE.V.>XfXBXBX0XQ.oXBXbX|./.mX!   ,     #   l dXr.y.=XH.[.3XBXlXbXBXQ.d    .m.  i   3.MXBXBXBXBXBXBXVX",
"VXBXBXBXBXBXBXNXBXaXZ   J iXBXbXBXfXsXvX/.+XrXBXtX*X1X#X  0 . .   + 1   >X;X) 8Xs.a <.-XsXrXsXl.i m.T.&.4 1   <.bXBXBXBXBXBXBXVX",
"VXVXBXNXBXBXBXNXBXqXe.  f.qXhXBXBXBXbXbXBX7XiXBXxXBXBXN.  u @ 6 8 . Z   {.kX2.&X8.< -XcXBX>X+.  ~ <X X' 9 3   5.NXBXNXNXBXBXVXVX",
"VXVXBXBXNXNXBXBXBXMXhX~   q ,.).:X7XlXBXbXbXBXNXzXmXBX#X  1 O       y   %XBX,.H [ U.BXeXf.    0 >         5   w.BXBXBXBXBXBXVXVX",
"VXVXBXBXBXBXBXBXBXMXBX{.  e         R ^.%XC N.mXBXBXBXBX{.  ; V.x./ ..U.jXgX$X'   [.=XD   < 4     > 9 ;   e   C.MXkXhXhXBXhXVXVX",
"VXVXVXBXBXBXBXBXBXNXBXnX$.  u t 2 =     x .   W.BXbXMXBX].  ,XdXwXbXmXvXkXwX XM.  t     e o     . o . . X <   <XMXzXxXxXmXVXVXVX",
"VXVXVXBXBXBXBXBXBXBXMXBX-X  u + O O < 4       j.BXMXNXBX7XV.MXhXiXBXMXvXBX3X&X).  e 5 :   .       . . o p   9.BXBXBXBXBXBXVXVXVX",
"VXVXVXVXBXBXBXBXBXBXBXNXBXa.  s q $ . ;   %.  ].BXmXBXNXBXBXMXcXgXBXMXvXBX#X+X-X  e O         . & 8 t <     4XBXMXBXBXBXVXVXVXVX",
"VXVXVXVXBXBXBXBXBXBXBXNXBXsX>.      r p   L.$.4XBXzXjXbXzXlXmXhXpXxXMXjXhX/.*X1X  ; O       ; 0         ) .XBXNXBXBXBXBXVXVXVXVX",
"VXVXVXVXVXBXBXBXBXBXBXBXNXBXmX:Xh.b       <.p.aXBXMXnXNXxXnXNXMXmXMXBXMXBXyXbXeX4   @ .   3     A i.!.6XbXBXBXBXBXBXBXVXVXVXVXVX",
"VXVXVXVXVXBXBXBXBXBXBXNXBXNXBXBXBXpX(. .  a U 2XBXBXBXBXlXzXMXmXMXmXmXmXnXBXBX[.  0 X   2   D !.sXBXBXBXBXNXBXBXBXBXBXVXVXVXVXVX",
"VXVXVXVXVXVXBXBXBXBXBXBXBXBXBXNXNXBXBXcX5.    q.gXlXbXbXcXBXBXBXNXxXvXBXNX$XsX#.  5   ,   ~ pXBXBXBXNXNXBXBXBXBXBXBXVXVXVXVXVXVX",
"VXVXVXVXVXVXVXBXBXBXBXBXBXBXBXBXBXNXnXBXS.$.V   m 3.| k./.{.fXbXjXkXxXtXn.  a.      @ q   [.BXmXbXnXnXmXNXBXBXBXBXVXVXVXVXVXVXVX",
"VXVXVXVXVXVXVXVXBXBXBXBXBXBXBXBXBXBXNXBX5XT.+.=Xr.qXE.0XyXR.lXn.P.vXs.G.u.l.!.G.R.  1 &   3XmXnXxXcXzXnXBXBXBXBXVXVXVXVXVXVXVXVX",
"VXVXVXVXVXVXVXVXBXBXBXBXBXBXBXBXBXNXNXNXBX<Xs.c.U.BXrXxXrXvXmX3XzXBX`.vXwX XfX^.6Xe   1   2XBXBXBXBXBXBXBXBXBXMXVXVXVXVXVXVXVXVX",
"VXVXVXVXVXVXVXVXVXBXBXBXBXBXBXBXBXNXNXBXMXBXMX2.M.-X_.BX0XmXlXlXMXBX1XsXbX .!.*.4.r   q   #XBXlXBXBXBXBXBXBXBXVXVXVXVXVXVXVXVXVX",
"VXVXVXVXVXVXVXVXVXVXBXBXBXBXBXBXBXBXBXBXBXnXBX`.    5 v.*.}.0X@X6XnXQ.y.Z.          . r   '.MXaXzXfXsXhXBXiXVXVXVXVXVXVXVXVXVXVX",
"VXVXVXVXVXVXVXVXVXVXVXVXBXBXBXBXBXBXBXBXBXNXBX#X  g         8   p H 0     ; , & 6 . . r   ~.BXxXcXkXcXBXVXVXVXVXVXVXVXVXVXVXVXVX",
"VXVXVXVXVXVXVXVXVXVXVXVXVXBXBXBXBXBXBXBXBXBXBXcX..  g q 3 6   >       0 w   X .     . w   XXBXBXBXBXBXVXVXVXVXVXVXVXVXVXVXVXVXVX",
"VXVXVXVXVXVXVXVXVXVXVXVXVXVXBXBXBXBXBXBXBXBXNXBXuX)   q 5 o @ O $ - +   .       .   < ,   6XBXBXBXBXVXVXVXVXVXVXVXVXVXVXVXVXVXVX",
"VXVXVXVXVXVXVXVXVXVXVXVXVXVXVXVXBXBXBXBXBXBXBXMXBXjXb.    0 9 > < & o X O o o * 7 u O   L.BXBXBXVXVXVXVXVXVXVXVXVXVXVXVXVXVXVXVX",
"VXVXVXVXVXVXVXVXVXVXVXVXVXVXVXVXVXBXBXBXBXBXBXBXNXBXBX>X*.          2 9 , 7 <       a ].BXMXkXVXVXVXVXVXVXVXVXVXVXVXVXVXVXVXVXVX",
"VXVXVXVXVXVXVXVXVXVXVXVXVXVXVXVXVXVXVXVXBXBXBXBXBXNXNXBXbX>Xz.[  .B           H l.Q.+XyXVXVXVXVXVXVXVXVXVXVXVXVXVXVXVXVXVXVXVXVX",
"VXVXVXVXVXVXVXVXVXVXVXVXVXVXVXVXVXVXVXVXVXVXBXBXBXBXBXBXBXBXbXxXnXsX<X=XqX9X7XgXBXBXVXVXVXVXVXVXVXVXVXVXVXVXVXVXVXVXVXVXVXVXVXVX",
"VXVXVXVXVXVXVXVXVXVXVXVXVXVXVXVXVXVXVXVXVXVXVXVXVXVXBXBXNXMXBXBXBXBXBXBXBXBXVXVXVXVXVXVXVXVXVXVXVXVXVXVXVXVXVXVXVXVXVXVXVXVXVXVX"
};
